<svg width="299" height="364" viewBox="0 0 299 364" fill="none" xmlns="http://www.w3.org/2000/svg">
<g opacity="0.5">
<rect x="25.2725" y="46.2812" width="174" height="289" rx="11" transform="rotate(-15.0164 25.2725 46.2812)" fill="url(#paint0_linear_0_1)"/>
<path d="M113.014 177.255C112.815 176.532 112.843 175.863 113.096 175.247C113.352 174.63 113.819 174.084 114.496 173.609C115.177 173.133 116.051 172.748 117.118 172.454C118.179 172.162 119.122 172.047 119.947 172.109C120.775 172.173 121.458 172.405 121.994 172.804C122.534 173.206 122.903 173.764 123.1 174.48C123.297 175.196 123.265 175.863 123.005 176.481C122.75 177.101 122.282 177.649 121.602 178.125C120.925 178.603 120.057 178.988 118.996 179.28C117.928 179.574 116.981 179.69 116.153 179.629C115.328 179.567 114.647 179.337 114.111 178.938C113.579 178.538 113.213 177.977 113.014 177.255ZM114.069 176.965C114.266 177.68 114.764 178.141 115.563 178.348C116.362 178.554 117.401 178.482 118.679 178.13C119.529 177.896 120.228 177.606 120.776 177.259C121.324 176.916 121.708 176.532 121.928 176.107C122.149 175.685 122.194 175.238 122.064 174.765C121.869 174.055 121.367 173.597 120.557 173.39C119.75 173.183 118.709 173.254 117.434 173.605C116.584 173.839 115.887 174.127 115.342 174.469C114.796 174.812 114.415 175.193 114.197 175.614C113.981 176.038 113.938 176.488 114.069 176.965ZM125.355 183.203L115.538 185.904L115.211 184.715L123.782 182.357L123.766 182.299L121.515 180.34L122.723 180.008L125.028 182.014L125.355 183.203ZM127.552 189.389L114.928 189.459L114.643 188.424L127.267 188.354L127.552 189.389ZM117.638 193.538L118.501 193.301L122.94 195.566C123.46 195.832 123.907 196.045 124.282 196.207C124.659 196.368 125 196.47 125.304 196.513C125.613 196.559 125.917 196.541 126.217 196.458C126.562 196.363 126.838 196.198 127.045 195.962C127.253 195.73 127.386 195.453 127.445 195.13C127.504 194.808 127.485 194.47 127.388 194.115C127.284 193.738 127.115 193.43 126.881 193.192C126.651 192.956 126.376 192.8 126.056 192.723C125.737 192.649 125.39 192.664 125.016 192.767L124.705 191.636C125.28 191.477 125.821 191.471 126.329 191.617C126.837 191.762 127.275 192.03 127.643 192.42C128.013 192.814 128.276 193.297 128.434 193.869C128.592 194.444 128.611 194.987 128.49 195.498C128.369 196.009 128.138 196.447 127.795 196.813C127.452 197.179 127.028 197.431 126.523 197.57C126.162 197.67 125.791 197.701 125.41 197.665C125.033 197.632 124.589 197.513 124.08 197.309C123.574 197.108 122.942 196.809 122.183 196.413L119.218 194.857L119.141 194.878L120.397 199.441L119.342 199.732L117.638 193.538ZM120.665 205.065C120.491 204.433 120.444 203.839 120.526 203.284C120.607 202.732 120.802 202.257 121.108 201.86C121.419 201.465 121.828 201.184 122.336 201.017L122.668 202.225C122.359 202.338 122.115 202.521 121.938 202.776C121.764 203.031 121.657 203.33 121.618 203.674C121.578 204.018 121.611 204.379 121.714 204.756C121.83 205.178 122.007 205.532 122.243 205.817C122.48 206.103 122.755 206.302 123.068 206.415C123.381 206.528 123.71 206.538 124.055 206.443C124.416 206.343 124.71 206.166 124.935 205.912C125.164 205.656 125.309 205.335 125.371 204.946C125.433 204.558 125.395 204.115 125.258 203.616L125.041 202.83L126.096 202.54L126.312 203.326C126.42 203.716 126.584 204.039 126.805 204.294C127.028 204.552 127.29 204.73 127.591 204.825C127.893 204.924 128.217 204.927 128.562 204.832C128.894 204.74 129.163 204.587 129.369 204.372C129.575 204.158 129.709 203.897 129.773 203.591C129.837 203.288 129.82 202.956 129.72 202.595C129.627 202.256 129.477 201.954 129.27 201.687C129.067 201.424 128.822 201.23 128.537 201.105C128.255 200.98 127.949 200.954 127.619 201.028L127.302 199.877C127.822 199.755 128.315 199.786 128.782 199.971C129.252 200.154 129.66 200.451 130.007 200.861C130.354 201.274 130.606 201.763 130.761 202.329C130.928 202.936 130.948 203.491 130.822 203.993C130.699 204.495 130.469 204.917 130.134 205.26C129.799 205.603 129.399 205.839 128.936 205.966C128.383 206.118 127.872 206.103 127.402 205.919C126.933 205.739 126.555 205.421 126.269 204.967L126.192 204.989C126.26 205.637 126.13 206.193 125.801 206.659C125.475 207.123 125 207.441 124.377 207.612C123.843 207.759 123.324 207.746 122.819 207.572C122.318 207.4 121.878 207.099 121.498 206.667C121.118 206.235 120.84 205.701 120.665 205.065Z" fill="black"/>
<path d="M66.2741 52.0735L76.7924 49.1798L78.5388 55.5277L77.4089 55.8386L76.0129 50.7643L72.4589 51.7421L73.7644 56.4876L72.6345 56.7985L71.329 52.0529L67.7544 53.0363L69.173 58.1928L68.0431 58.5036L66.2741 52.0735ZM68.5447 60.3268L69.4691 60.0725L76.4534 62.9685L76.5356 62.9459L75.3431 58.6112L76.473 58.3004L78.095 64.1964L77.1295 64.462L70.2202 61.678L70.138 61.7006L71.3757 66.1996L70.2458 66.5105L68.5447 60.3268ZM68.4507 72.1947C68.2896 71.6092 68.2265 71.0852 68.2612 70.6226C68.2926 70.1609 68.3912 69.7563 68.5571 69.4086C68.7205 69.0654 68.9165 68.7739 69.1452 68.5342L70.0888 69.3132C69.9751 69.4623 69.8489 69.6462 69.7102 69.8649C69.568 70.0844 69.4685 70.3586 69.4116 70.6873C69.3522 71.0204 69.388 71.4249 69.5189 71.9008C69.6941 72.5377 69.9928 73.0208 70.4149 73.3504C70.8371 73.6799 71.3768 73.7542 72.0342 73.5734L73.6366 73.1325L73.6084 73.0298C73.4401 72.9803 73.2272 72.9026 72.9697 72.7967C72.7165 72.6932 72.4659 72.5117 72.2177 72.2522C71.9739 71.9952 71.7813 71.6099 71.64 71.0963C71.4648 70.4594 71.4582 69.8462 71.6201 69.2566C71.7829 68.6703 72.1114 68.1509 72.6056 67.6982C73.1008 67.2489 73.7593 66.9112 74.581 66.6852C75.389 66.4629 76.1318 66.4114 76.8091 66.5307C77.4899 66.6491 78.0644 66.9165 78.5325 67.3328C79.004 67.7482 79.3311 68.288 79.5139 68.9522C79.6552 69.4658 79.6817 69.8968 79.5934 70.2452C79.5094 70.5961 79.3817 70.8817 79.2103 71.1019C79.0432 71.3247 78.9035 71.4994 78.791 71.6261L78.8249 71.7494L80.0781 71.4046L80.4002 72.5756L72.2855 74.808C71.6076 74.9945 71.0139 74.9921 70.5046 74.8008C69.9928 74.6138 69.5664 74.2891 69.2256 73.8267C68.8823 73.3687 68.624 72.8247 68.4507 72.1947ZM72.7741 70.9611C72.9078 71.4473 73.1321 71.8275 73.447 72.1019C73.7619 72.3762 74.1522 72.5432 74.6179 72.6029C75.0837 72.6626 75.6076 72.6124 76.1897 72.4522C76.758 72.2959 77.2361 72.0723 77.6238 71.7815C78.0116 71.4906 78.2826 71.1435 78.4368 70.7402C78.591 70.3368 78.6003 69.8886 78.4646 69.3956C78.3233 68.882 78.0755 68.4898 77.7211 68.219C77.3676 67.9516 76.9482 67.7926 76.4628 67.742C75.9784 67.6948 75.4691 67.7446 74.935 67.8916C74.3872 68.0423 73.9262 68.2612 73.5522 68.5482C73.1825 68.8378 72.9244 69.185 72.778 69.5899C72.636 69.9973 72.6346 70.4543 72.7741 70.9611ZM73.1219 76.9646L81.0106 74.7943L81.3441 76.0064L73.4553 78.1766L73.1219 76.9646ZM82.4949 75.0489C82.4299 74.8126 82.4544 74.5868 82.5682 74.3713C82.683 74.1593 82.8533 74.0222 83.0793 73.96C83.3053 73.8978 83.5218 73.9285 83.7289 74.052C83.9369 74.1789 84.0734 74.3605 84.1384 74.5968C84.2034 74.833 84.1785 75.0572 84.0638 75.2692C83.9499 75.4847 83.78 75.6235 83.5541 75.6857C83.3281 75.7478 83.1111 75.7155 82.9031 75.5885C82.696 75.465 82.5599 75.2852 82.4949 75.0489ZM75.2303 84.6286L85.7486 81.7349L87.495 88.0829L86.3651 88.3937L84.9691 83.3195L81.4151 84.2972L82.7206 89.0428L81.5908 89.3536L80.2852 84.6081L76.7106 85.5915L78.1292 90.7479L76.9993 91.0587L75.2303 84.6286ZM78.2182 96.132C78.0374 95.4746 78.0438 94.8486 78.2374 94.2539C78.4345 93.6582 78.7987 93.1345 79.33 92.6826C79.8647 92.2299 80.5497 91.8885 81.3852 91.6587C82.2138 91.4307 82.9719 91.375 83.6595 91.4915C84.3472 91.6081 84.9267 91.874 85.3983 92.2894C85.8698 92.7048 86.1969 93.2446 86.3797 93.9088C86.521 94.4224 86.547 94.8517 86.4577 95.1967C86.3729 95.5441 86.2442 95.8263 86.0719 96.0431C85.9038 96.2624 85.7636 96.4355 85.6511 96.5622L85.6794 96.6649L89.5621 95.5967L89.8956 96.8088L79.3773 99.7025L79.0551 98.5315L80.2672 98.198L80.2276 98.0542C80.0593 98.0048 79.843 97.928 79.5787 97.8239C79.3178 97.7189 79.0598 97.5376 78.8047 97.28C78.5531 97.0214 78.3576 96.6387 78.2182 96.132ZM79.3522 95.9968C79.486 96.483 79.7257 96.859 80.0714 97.1249C80.4205 97.3898 80.8451 97.5473 81.3451 97.5976C81.8485 97.647 82.3981 97.5897 82.9938 97.4258C83.5828 97.2638 84.0745 97.0364 84.4691 96.7437C84.8671 96.4501 85.1432 96.1015 85.2974 95.6982C85.4551 95.2939 85.4661 94.8452 85.3304 94.3521C85.1891 93.8386 84.9396 93.4468 84.5817 93.177C84.2283 92.9096 83.8037 92.752 83.3081 92.7042C82.8168 92.6589 82.2938 92.7125 81.7392 92.8651C81.1776 93.0196 80.691 93.2455 80.2793 93.543C79.872 93.8429 79.5797 94.1995 79.4024 94.6129C79.2296 95.0288 79.2128 95.4901 79.3522 95.9968ZM80.0343 102.091L87.923 99.9204L88.2565 101.132L80.3677 103.303L80.0343 102.091ZM89.4074 100.175C89.3424 99.9387 89.3668 99.7129 89.4806 99.4974C89.5954 99.2853 89.7658 99.1482 89.9917 99.0861C90.2177 99.0239 90.4342 99.0546 90.6413 99.1781C90.8493 99.305 90.9859 99.4866 91.0508 99.7228C91.1158 99.9591 91.091 100.183 90.9762 100.395C90.8624 100.611 90.6925 100.75 90.4665 100.812C90.2405 100.874 90.0235 100.842 89.8155 100.715C89.6084 100.591 89.4724 100.411 89.4074 100.175ZM80.9163 105.297L81.8408 105.042L88.8251 107.938L88.9072 107.916L87.7147 103.581L88.8446 103.27L90.4667 109.166L89.5011 109.432L82.5918 106.648L82.5097 106.67L83.7474 111.169L82.6175 111.48L80.9163 105.297Z" fill="black" fill-opacity="0.3"/>
<path d="M139.242 31.9787L140.5 31.6328L150.802 34.7651L151.053 35.6773L149.105 36.213L148.936 35.5967L141.151 33.2302L141.053 33.2574L143.108 40.727L141.752 41.1L139.242 31.9787ZM138.288 38.632L141.259 37.8147L141.844 37.6537L150.91 35.1596L151.31 36.614L138.688 40.0865L138.288 38.632ZM140.711 48.1136C140.512 47.3904 140.477 46.6997 140.605 46.0412C140.733 45.3827 141 44.81 141.405 44.3228C141.81 43.8357 142.329 43.4875 142.961 43.2783L143.368 44.7574C142.813 44.9721 142.411 45.3609 142.164 45.9239C141.922 46.49 141.89 47.0955 142.067 47.7406C142.209 48.2583 142.457 48.6851 142.81 49.0211C143.165 49.3611 143.585 49.588 144.072 49.7017C144.563 49.8183 145.078 49.8026 145.617 49.6545C146.167 49.503 146.625 49.2468 146.99 48.8857C147.36 48.5275 147.612 48.1045 147.748 47.6164C147.883 47.1284 147.879 46.6147 147.735 46.0753C147.632 45.6879 147.464 45.3078 147.229 44.935C146.998 44.561 146.751 44.2685 146.49 44.0576L146.269 42.5803L152.692 41.6354L154.496 48.1929L153.14 48.5659L151.689 43.2903L147.844 43.8707L147.864 43.9447C148.141 44.147 148.401 44.4247 148.644 44.7777C148.887 45.1307 149.067 45.5188 149.183 45.942C149.395 46.7145 149.4 47.4535 149.196 48.1593C148.998 48.8679 148.628 49.4825 148.086 50.0028C147.545 50.5272 146.866 50.9019 146.048 51.1269C145.243 51.3484 144.474 51.3654 143.742 51.1779C143.015 50.9934 142.382 50.6372 141.844 50.1091C141.309 49.58 140.932 48.9148 140.711 48.1136ZM143.704 58.9929C143.48 58.1794 143.421 57.4158 143.525 56.7021C143.63 55.9925 143.88 55.3823 144.274 54.8717C144.674 54.364 145.2 54.0027 145.852 53.7879L146.279 55.341C145.882 55.4857 145.569 55.7221 145.341 56.05C145.117 56.3768 144.98 56.7615 144.929 57.2041C144.879 57.6467 144.92 58.1104 145.053 58.5953C145.202 59.1376 145.429 59.5923 145.734 59.9594C146.038 60.3265 146.391 60.5829 146.794 60.7285C147.196 60.8741 147.619 60.8859 148.063 60.7638C148.527 60.6361 148.904 60.4086 149.195 60.0813C149.489 59.7528 149.675 59.3391 149.755 58.8399C149.834 58.3408 149.785 57.7708 149.609 57.1298L149.331 56.1191L150.687 55.7461L150.965 56.7568C151.103 57.2581 151.314 57.6728 151.599 58.0011C151.885 58.3335 152.222 58.5613 152.609 58.6845C152.998 58.8118 153.414 58.8145 153.857 58.6924C154.285 58.5748 154.631 58.378 154.895 58.102C155.159 57.8259 155.332 57.4911 155.414 57.0973C155.497 56.7077 155.475 56.2807 155.347 55.8165C155.227 55.3809 155.034 54.9921 154.767 54.65C154.506 54.3108 154.192 54.0613 153.826 53.9014C153.463 53.7404 153.069 53.7072 152.645 53.802L152.238 52.3228C152.906 52.1655 153.54 52.2054 154.14 52.4425C154.744 52.6785 155.269 53.0601 155.715 53.5872C156.161 54.1184 156.485 54.7476 156.685 55.4749C156.9 56.2555 156.926 56.9688 156.763 57.6146C156.605 58.2593 156.31 58.8022 155.879 59.2435C155.448 59.6847 154.934 59.9873 154.338 60.1512C153.628 60.3467 152.97 60.3265 152.366 60.0905C151.763 59.8586 151.277 59.4508 150.909 58.8671L150.81 58.8942C150.898 59.7275 150.73 60.4432 150.307 61.0414C149.888 61.6385 149.278 62.0472 148.477 62.2676C147.791 62.4564 147.123 62.439 146.474 62.2154C145.829 61.9948 145.263 61.607 144.775 61.052C144.286 60.4969 143.929 59.8106 143.704 58.9929ZM146.724 69.9694C146.59 69.4494 146.546 68.9046 146.592 68.3349C146.639 67.7652 146.827 67.2051 147.158 66.6546C147.492 66.1029 148.008 65.592 148.705 65.1218C149.406 64.6504 150.34 64.2542 151.507 63.9332C152.625 63.6258 153.644 63.4581 154.564 63.4303C155.489 63.4013 156.302 63.5047 157.003 63.7405C157.709 63.9752 158.293 64.3316 158.756 64.8097C159.22 65.2919 159.55 65.8884 159.745 66.5992C159.94 67.3059 159.971 67.9735 159.839 68.6021C159.712 69.2337 159.446 69.793 159.041 70.2801C158.636 70.7673 158.121 71.1521 157.496 71.4345L157.082 69.9307C157.61 69.635 158.006 69.2344 158.269 68.7289C158.533 68.2234 158.573 67.6378 158.389 66.9722C158.12 65.9944 157.483 65.341 156.478 65.0121C155.474 64.6873 154.203 64.7342 152.665 65.1528L152.692 65.2514C153.104 65.3854 153.478 65.5767 153.811 65.8253C154.15 66.0768 154.44 66.377 154.682 66.7259C154.924 67.0748 155.104 67.465 155.223 67.8964C155.422 68.6196 155.423 69.3308 155.226 70.0301C155.034 70.7284 154.671 71.3453 154.138 71.8809C153.609 72.4154 152.937 72.7946 152.124 73.0184C151.343 73.2332 150.58 73.2552 149.835 73.0846C149.094 72.9128 148.445 72.5631 147.889 72.0355C147.338 71.5108 146.95 70.8221 146.724 69.9694ZM148.08 69.5964C148.222 70.1141 148.479 70.5427 148.851 70.8824C149.224 71.2262 149.661 71.4573 150.162 71.5758C150.665 71.6984 151.183 71.6862 151.717 71.5393C152.239 71.3957 152.681 71.1481 153.044 70.7963C153.412 70.4475 153.668 70.0347 153.81 69.5579C153.954 69.0851 153.955 68.5899 153.813 68.0722C153.705 67.6819 153.527 67.3398 153.278 67.0458C153.034 66.7507 152.743 66.5125 152.406 66.3312C152.07 66.1541 151.709 66.0411 151.325 65.9922C150.944 65.9422 150.565 65.9692 150.187 66.0732C149.685 66.2111 149.249 66.4571 148.878 66.8111C148.508 67.1692 148.246 67.5905 148.092 68.0748C147.939 68.5633 147.935 69.0704 148.08 69.5964ZM150.174 81.8367L162.895 84.4098L162.994 84.3826L161.203 77.8744L162.559 77.5014L164.783 85.5874L163.354 85.9807L150.615 83.4391L150.174 81.8367ZM153.663 95.1933C153.43 94.3469 153.375 93.5578 153.496 92.8262C153.623 92.0974 153.901 91.4794 154.332 90.972C154.766 90.4635 155.325 90.1175 156.008 89.934C156.541 89.7829 157.063 89.752 157.574 89.8413C158.089 89.9295 158.549 90.1167 158.955 90.4028C159.366 90.6919 159.676 91.0553 159.885 91.4929L159.959 91.4725C159.949 90.8256 160.155 90.2516 160.579 89.7506C161.006 89.2484 161.556 88.9073 162.226 88.7272C162.866 88.5467 163.484 88.5513 164.08 88.741C164.676 88.9307 165.199 89.273 165.649 89.7679C166.1 90.267 166.427 90.8863 166.63 91.6259C166.832 92.3573 166.865 93.0507 166.732 93.7062C166.598 94.3616 166.324 94.9232 165.909 95.391C165.496 95.8628 164.969 96.1889 164.329 96.3694C163.658 96.5495 163.01 96.5311 162.385 96.3143C161.764 96.1004 161.295 95.7191 160.976 95.1704L160.902 95.1907C160.945 95.6694 160.863 96.1339 160.656 96.5844C160.452 97.0337 160.152 97.43 159.756 97.7732C159.364 98.1153 158.902 98.3619 158.369 98.5129C157.685 98.6965 157.026 98.6789 156.392 98.4601C155.762 98.2444 155.207 97.8558 154.725 97.2944C154.249 96.7359 153.895 96.0356 153.663 95.1933ZM155.019 94.8203C155.176 95.3914 155.404 95.859 155.703 96.2231C156.002 96.5872 156.352 96.8359 156.751 96.9692C157.15 97.1025 157.576 97.109 158.029 96.9888C158.504 96.8536 158.892 96.6145 159.191 96.2714C159.49 95.9284 159.686 95.5186 159.78 95.0418C159.876 94.5692 159.85 94.0658 159.703 93.5317C159.555 92.9934 159.318 92.5415 158.992 92.176C158.667 91.8145 158.289 91.5629 157.856 91.4211C157.425 91.2834 156.972 91.2822 156.496 91.4174C156.043 91.5376 155.679 91.755 155.403 92.0696C155.128 92.3882 154.956 92.7826 154.886 93.2525C154.817 93.7225 154.861 94.2451 155.019 94.8203ZM161.01 93.1722C161.134 93.6242 161.335 93.9999 161.611 94.2994C161.889 94.603 162.218 94.8109 162.598 94.9229C162.978 95.0349 163.387 95.0331 163.823 94.9174C164.25 94.7957 164.594 94.5927 164.856 94.3085C165.122 94.0231 165.293 93.6821 165.37 93.2853C165.45 92.8875 165.427 92.4564 165.299 91.9921C165.169 91.5196 164.967 91.131 164.693 90.8263C164.424 90.5204 164.102 90.315 163.728 90.21C163.359 90.104 162.961 90.1118 162.535 90.2334C162.098 90.3491 161.745 90.5503 161.474 90.8368C161.205 91.1274 161.029 91.4743 160.945 91.8773C160.862 92.2804 160.883 92.7121 161.01 93.1722ZM169.566 102.296C169.704 102.815 169.748 103.359 169.697 103.93C169.646 104.501 169.456 105.062 169.126 105.612C168.8 106.162 168.288 106.671 167.591 107.142C166.894 107.612 165.966 108.006 164.807 108.325C163.685 108.634 162.66 108.801 161.73 108.827C160.805 108.856 159.99 108.753 159.285 108.518C158.581 108.288 157.996 107.932 157.532 107.449C157.069 106.971 156.74 106.377 156.544 105.666C156.35 104.959 156.316 104.29 156.443 103.659C156.575 103.03 156.843 102.47 157.247 101.979C157.656 101.491 158.18 101.106 158.819 100.824L159.232 102.328C158.69 102.623 158.286 103.023 158.019 103.53C157.757 104.04 157.717 104.627 157.9 105.293C158.168 106.267 158.805 106.918 159.81 107.247C160.817 107.58 162.096 107.533 163.65 107.106L163.622 107.007C163.214 106.872 162.841 106.68 162.503 106.433C162.166 106.186 161.876 105.887 161.634 105.539C161.392 105.19 161.211 104.797 161.091 104.362C160.893 103.639 160.889 102.926 161.08 102.224C161.277 101.524 161.639 100.907 162.169 100.373C162.703 99.8414 163.377 99.4637 164.19 99.2399C164.963 99.0274 165.717 99.0056 166.453 99.1744C167.194 99.3461 167.842 99.6938 168.397 100.217C168.953 100.745 169.343 101.438 169.566 102.296ZM168.21 102.669C168.067 102.151 167.81 101.72 167.437 101.377C167.069 101.036 166.634 100.804 166.132 100.681C165.635 100.562 165.123 100.574 164.597 100.719C164.071 100.864 163.624 101.11 163.256 101.459C162.893 101.811 162.64 102.223 162.496 102.696C162.357 103.172 162.359 103.668 162.502 104.186C162.609 104.576 162.785 104.919 163.03 105.214C163.279 105.508 163.571 105.744 163.907 105.921C164.248 106.101 164.609 106.216 164.99 106.266C165.374 106.315 165.754 106.288 166.128 106.185C166.621 106.049 167.05 105.803 167.416 105.446C167.783 105.093 168.043 104.673 168.196 104.184C168.35 103.7 168.355 103.195 168.21 102.669ZM159.605 116.792C159.35 115.863 159.385 115.003 159.71 114.21C160.04 113.417 160.64 112.715 161.511 112.104C162.386 111.492 163.509 110.998 164.882 110.62C166.246 110.245 167.458 110.097 168.518 110.176C169.584 110.259 170.462 110.557 171.151 111.07C171.845 111.586 172.319 112.304 172.572 113.224C172.826 114.145 172.785 115.002 172.451 115.797C172.123 116.594 171.521 117.299 170.646 117.911C169.777 118.526 168.66 119.021 167.296 119.396C165.924 119.774 164.705 119.923 163.641 119.845C162.58 119.765 161.705 119.469 161.016 118.956C160.331 118.442 159.861 117.72 159.605 116.792ZM160.961 116.419C161.214 117.339 161.855 117.932 162.882 118.197C163.91 118.463 165.246 118.369 166.889 117.917C167.982 117.616 168.88 117.243 169.584 116.798C170.289 116.356 170.783 115.862 171.066 115.316C171.35 114.774 171.408 114.199 171.241 113.591C170.99 112.678 170.344 112.089 169.303 111.823C168.266 111.556 166.928 111.648 165.288 112.099C164.196 112.4 163.299 112.77 162.598 113.211C161.897 113.651 161.406 114.142 161.127 114.683C160.848 115.228 160.793 115.807 160.961 116.419ZM162.972 128.356L164.081 128.05L169.788 130.962C170.457 131.304 171.032 131.579 171.514 131.787C171.999 131.993 172.437 132.125 172.828 132.181C173.225 132.24 173.616 132.216 174.002 132.11C174.446 131.988 174.801 131.775 175.067 131.472C175.334 131.173 175.505 130.817 175.581 130.402C175.657 129.988 175.632 129.553 175.507 129.097C175.374 128.612 175.157 128.217 174.856 127.91C174.56 127.607 174.207 127.406 173.795 127.307C173.384 127.213 172.939 127.231 172.458 127.364L172.058 125.909C172.797 125.706 173.493 125.697 174.146 125.885C174.799 126.072 175.362 126.417 175.836 126.918C176.311 127.424 176.649 128.045 176.852 128.78C177.055 129.52 177.079 130.218 176.924 130.875C176.769 131.532 176.471 132.096 176.03 132.566C175.59 133.036 175.045 133.361 174.396 133.539C173.931 133.667 173.454 133.708 172.964 133.662C172.479 133.618 171.909 133.466 171.254 133.204C170.604 132.945 169.791 132.561 168.815 132.052L165.003 130.051L164.904 130.078L166.519 135.945L165.163 136.318L162.972 128.356ZM166.864 143.176C166.64 142.362 166.58 141.599 166.684 140.885C166.79 140.175 167.039 139.565 167.434 139.055C167.833 138.547 168.359 138.186 169.012 137.971L169.439 139.524C169.041 139.669 168.728 139.905 168.5 140.233C168.276 140.56 168.139 140.944 168.089 141.387C168.038 141.83 168.079 142.293 168.213 142.778C168.362 143.321 168.589 143.775 168.893 144.142C169.197 144.509 169.551 144.766 169.953 144.911C170.356 145.057 170.779 145.069 171.223 144.947C171.687 144.819 172.064 144.592 172.354 144.264C172.648 143.936 172.835 143.522 172.914 143.023C172.993 142.524 172.945 141.954 172.769 141.313L172.49 140.302L173.846 139.929L174.124 140.94C174.262 141.441 174.474 141.856 174.758 142.184C175.044 142.516 175.381 142.744 175.769 142.867C176.157 142.995 176.573 142.997 177.017 142.875C177.444 142.758 177.79 142.561 178.055 142.285C178.319 142.009 178.492 141.674 178.574 141.28C178.657 140.891 178.634 140.464 178.506 139.999C178.387 139.564 178.193 139.175 177.927 138.833C177.666 138.494 177.352 138.244 176.985 138.084C176.623 137.923 176.229 137.89 175.804 137.985L175.397 136.506C176.066 136.348 176.7 136.388 177.3 136.625C177.904 136.861 178.429 137.243 178.874 137.77C179.321 138.301 179.644 138.931 179.844 139.658C180.059 140.438 180.085 141.152 179.923 141.798C179.764 142.442 179.469 142.985 179.038 143.426C178.607 143.868 178.094 144.17 177.498 144.334C176.787 144.53 176.13 144.509 175.526 144.273C174.923 144.042 174.437 143.634 174.069 143.05L173.97 143.077C174.058 143.91 173.89 144.626 173.467 145.224C173.048 145.821 172.437 146.23 171.636 146.451C170.95 146.639 170.282 146.622 169.633 146.398C168.989 146.178 168.423 145.79 167.934 145.235C167.445 144.68 167.089 143.994 166.864 143.176ZM168.903 149.914L170.012 149.609L175.719 152.52C176.388 152.862 176.963 153.137 177.444 153.345C177.93 153.552 178.368 153.683 178.759 153.739C179.156 153.798 179.547 153.774 179.933 153.668C180.377 153.546 180.732 153.333 180.998 153.031C181.264 152.732 181.436 152.375 181.512 151.961C181.588 151.547 181.563 151.111 181.438 150.655C181.305 150.171 181.087 149.775 180.787 149.469C180.491 149.166 180.137 148.965 179.726 148.866C179.315 148.771 178.87 148.79 178.389 148.922L177.989 147.467C178.728 147.264 179.424 147.256 180.077 147.443C180.73 147.63 181.293 147.975 181.767 148.477C182.242 148.982 182.58 149.603 182.783 150.338C182.986 151.078 183.01 151.776 182.855 152.433C182.7 153.09 182.402 153.654 181.961 154.124C181.521 154.595 180.976 154.919 180.327 155.098C179.862 155.226 179.385 155.266 178.895 155.22C178.41 155.177 177.84 155.024 177.185 154.762C176.535 154.504 175.722 154.12 174.746 153.61L170.934 151.609L170.835 151.636L172.45 157.504L171.094 157.877L168.903 149.914ZM172.706 164.414C172.508 163.691 172.472 163 172.6 162.341C172.729 161.683 172.995 161.11 173.401 160.623C173.806 160.136 174.324 159.788 174.956 159.579L175.363 161.058C174.808 161.272 174.407 161.661 174.159 162.224C173.917 162.79 173.885 163.396 174.062 164.041C174.205 164.559 174.453 164.985 174.806 165.321C175.16 165.661 175.581 165.888 176.067 166.002C176.559 166.119 177.074 166.103 177.612 165.955C178.163 165.803 178.62 165.547 178.985 165.186C179.355 164.828 179.608 164.405 179.743 163.917C179.878 163.429 179.874 162.915 179.73 162.376C179.628 161.988 179.459 161.608 179.224 161.235C178.993 160.861 178.747 160.569 178.485 160.358L178.265 158.881L184.687 157.936L186.491 164.493L185.135 164.866L183.684 159.591L179.839 160.171L179.86 160.245C180.136 160.447 180.396 160.725 180.639 161.078C180.882 161.431 181.062 161.819 181.178 162.242C181.391 163.015 181.395 163.754 181.192 164.459C180.993 165.168 180.623 165.783 180.081 166.303C179.54 166.827 178.861 167.202 178.044 167.427C177.238 167.649 176.469 167.666 175.737 167.478C175.01 167.294 174.378 166.937 173.839 166.409C173.304 165.88 172.927 165.215 172.706 164.414ZM176.042 175.862L177.151 175.557L182.858 178.468C183.526 178.81 184.102 179.085 184.583 179.293C185.069 179.5 185.507 179.631 185.898 179.687C186.294 179.746 186.686 179.722 187.072 179.616C187.515 179.494 187.87 179.282 188.136 178.979C188.403 178.68 188.575 178.323 188.651 177.909C188.727 177.495 188.702 177.059 188.577 176.603C188.443 176.119 188.226 175.723 187.925 175.417C187.63 175.114 187.276 174.913 186.864 174.814C186.454 174.719 186.008 174.738 185.527 174.87L185.127 173.416C185.867 173.212 186.563 173.204 187.215 173.391C187.868 173.579 188.431 173.923 188.905 174.425C189.38 174.93 189.719 175.551 189.921 176.286C190.125 177.026 190.149 177.724 189.994 178.381C189.839 179.038 189.541 179.602 189.1 180.072C188.659 180.543 188.114 180.867 187.465 181.046C187.001 181.174 186.524 181.214 186.034 181.168C185.549 181.125 184.979 180.972 184.323 180.71C183.673 180.452 182.86 180.068 181.885 179.558L178.073 177.557L177.974 177.584L179.588 183.452L178.232 183.825L176.042 175.862ZM179.845 190.362C179.646 189.639 179.611 188.948 179.739 188.29C179.867 187.631 180.134 187.058 180.539 186.571C180.944 186.084 181.463 185.736 182.095 185.527L182.502 187.006C181.946 187.22 181.545 187.609 181.298 188.172C181.056 188.738 181.023 189.344 181.201 189.989C181.343 190.507 181.591 190.933 181.944 191.269C182.299 191.609 182.719 191.836 183.206 191.95C183.697 192.067 184.212 192.051 184.751 191.903C185.301 191.751 185.759 191.495 186.123 191.134C186.493 190.776 186.746 190.353 186.881 189.865C187.017 189.377 187.012 188.863 186.868 188.324C186.766 187.936 186.598 187.556 186.363 187.183C186.131 186.809 185.885 186.517 185.624 186.306L185.403 184.829L191.826 183.884L193.63 190.441L192.274 190.814L190.823 185.539L186.978 186.119L186.998 186.193C187.275 186.395 187.535 186.673 187.778 187.026C188.021 187.379 188.2 187.767 188.317 188.19C188.529 188.963 188.534 189.702 188.33 190.408C188.132 191.116 187.762 191.731 187.22 192.251C186.679 192.776 186 193.15 185.182 193.375C184.377 193.597 183.608 193.614 182.876 193.426C182.149 193.242 181.516 192.885 180.977 192.357C180.443 191.828 180.065 191.163 179.845 190.362ZM181.837 196.929L182.947 196.624L188.654 199.535C189.322 199.877 189.897 200.152 190.379 200.36C190.864 200.567 191.303 200.698 191.694 200.754C192.09 200.813 192.481 200.789 192.867 200.683C193.311 200.561 193.666 200.348 193.932 200.046C194.199 199.747 194.37 199.39 194.446 198.976C194.522 198.562 194.498 198.126 194.372 197.67C194.239 197.186 194.022 196.79 193.721 196.484C193.425 196.181 193.072 195.98 192.66 195.881C192.249 195.786 191.804 195.805 191.323 195.937L190.923 194.482C191.663 194.279 192.359 194.271 193.011 194.458C193.664 194.645 194.227 194.99 194.701 195.492C195.176 195.997 195.515 196.618 195.717 197.353C195.92 198.093 195.945 198.791 195.789 199.448C195.634 200.105 195.336 200.669 194.896 201.139C194.455 201.61 193.91 201.934 193.261 202.113C192.797 202.241 192.319 202.281 191.829 202.235C191.344 202.192 190.774 202.039 190.119 201.777C189.469 201.519 188.656 201.135 187.68 200.625L183.868 198.624L183.77 198.651L185.384 204.519L184.028 204.892L181.837 196.929ZM184.837 207.831L197.557 210.405L197.656 210.377L195.865 203.869L197.221 203.496L199.446 211.582L198.016 211.975L185.278 209.434L184.837 207.831Z" fill="black"/>
<path d="M115.711 144.721L111.98 147.315L111.996 147.373L116.529 147.693L116.7 148.316L111.296 147.864L111.127 147.251L115.54 144.098L115.711 144.721ZM111.941 150.211L111.77 149.588L117.174 150.039L117.343 150.653L112.93 153.806L112.759 153.183L116.487 150.579L116.477 150.541L111.941 150.211ZM113.922 149.913L114.613 152.425L114.086 152.57L113.395 150.058L113.922 149.913ZM113.141 154.57L118.049 153.22L118.213 153.814L113.832 155.02L114.459 157.301L113.932 157.446L113.141 154.57ZM119.257 157.611L114.349 158.961L114.185 158.367L119.094 157.016L119.257 157.611ZM115.093 161.668L114.677 160.153L119.585 158.803L120.02 160.384C120.151 160.861 120.165 161.295 120.062 161.688C119.96 162.08 119.751 162.417 119.435 162.698C119.12 162.979 118.709 163.189 118.201 163.329C117.689 163.47 117.224 163.5 116.805 163.419C116.387 163.338 116.032 163.151 115.738 162.857C115.445 162.563 115.23 162.166 115.093 161.668ZM115.367 160.602L115.61 161.484C115.722 161.89 115.892 162.205 116.122 162.429C116.352 162.652 116.63 162.79 116.955 162.842C117.281 162.893 117.643 162.864 118.042 162.754C118.439 162.645 118.762 162.486 119.012 162.278C119.264 162.07 119.432 161.816 119.514 161.516C119.599 161.216 119.588 160.875 119.482 160.491L119.221 159.542L115.367 160.602ZM107.408 146.762L107.936 146.617L108.948 150.299L108.421 150.444L107.996 148.9L103.615 150.106L103.452 149.511L107.833 148.306L107.408 146.762ZM104.292 152.566L109.201 151.216L109.364 151.81L107.178 152.412L107.898 155.029L110.084 154.428L110.248 155.022L105.339 156.372L105.176 155.778L107.371 155.174L106.651 152.557L104.456 153.161L104.292 152.566ZM105.667 157.562L110.575 156.212L111.031 157.871C111.137 158.254 111.158 158.587 111.095 158.869C111.033 159.151 110.905 159.382 110.711 159.562C110.516 159.743 110.274 159.873 109.985 159.953C109.696 160.032 109.423 160.044 109.167 159.987C108.911 159.93 108.685 159.797 108.49 159.588C108.297 159.378 108.148 159.083 108.043 158.703L107.674 157.361L108.211 157.213L108.575 158.536C108.647 158.798 108.743 158.999 108.864 159.137C108.985 159.278 109.126 159.364 109.286 159.398C109.448 159.432 109.628 159.422 109.824 159.368C110.021 159.314 110.183 159.23 110.309 159.116C110.436 159.002 110.517 158.853 110.553 158.67C110.59 158.486 110.572 158.262 110.499 157.996L110.211 156.951L105.83 158.157L105.667 157.562ZM108.507 159.266L106.635 161.081L106.445 160.391L108.323 158.595L108.507 159.266ZM112.649 163.75L112.813 164.345L109.563 165.239C109.227 165.331 108.906 165.335 108.599 165.249C108.293 165.164 108.026 165 107.795 164.756C107.566 164.511 107.399 164.196 107.293 163.811C107.187 163.426 107.17 163.07 107.241 162.742C107.314 162.415 107.46 162.136 107.679 161.905C107.899 161.676 108.177 161.516 108.513 161.423L111.763 160.529L111.926 161.124L108.724 162.004C108.485 162.07 108.286 162.182 108.128 162.339C107.972 162.495 107.867 162.686 107.813 162.91C107.762 163.136 107.774 163.385 107.849 163.658C107.924 163.931 108.041 164.152 108.201 164.319C108.362 164.486 108.55 164.596 108.764 164.649C108.98 164.703 109.207 164.697 109.447 164.631L112.649 163.75Z" fill="black"/>
<g clip-path="url(#clip0_0_1)">
<path d="M122.081 276.603C123.362 281.262 128.179 284 132.838 282.718C137.498 281.437 140.236 276.62 138.954 271.961C137.672 267.301 132.856 264.563 128.196 265.845C123.537 267.127 120.799 271.943 122.081 276.603Z" fill="#EA001B"/>
<path d="M125.396 288.655C126.678 293.314 131.494 296.052 136.154 294.771C140.813 293.489 143.551 288.672 142.269 284.013C140.988 279.354 136.171 276.616 131.512 277.898C126.853 279.179 124.114 283.996 125.396 288.655Z" fill="#FFA200" fill-opacity="0.8"/>
</g>
<path d="M107.665 258.047L107.944 259.06L102.779 263.045L102.801 263.127L109.278 263.909L109.556 264.922L102.544 266.851L102.326 266.057L107.653 264.591L107.634 264.523L101.704 263.797L101.493 263.03L106.218 259.373L106.199 259.305L100.871 260.77L100.653 259.976L107.665 258.047ZM103.285 270.026C103.193 269.693 103.173 269.373 103.224 269.067C103.277 268.76 103.401 268.494 103.597 268.268C103.795 268.042 104.065 267.881 104.407 267.787C104.709 267.704 104.969 267.696 105.189 267.764C105.411 267.83 105.603 267.948 105.765 268.117C105.927 268.286 106.067 268.483 106.186 268.708C106.307 268.935 106.417 269.167 106.516 269.402C106.645 269.71 106.748 269.961 106.823 270.154C106.901 270.348 106.979 270.484 107.056 270.561C107.135 270.64 107.239 270.662 107.369 270.626L107.396 270.618C107.734 270.526 107.971 270.361 108.107 270.124C108.244 269.89 108.262 269.587 108.159 269.215C108.053 268.829 107.886 268.55 107.656 268.378C107.427 268.205 107.204 268.1 106.988 268.064L107.051 267.222C107.408 267.271 107.707 267.385 107.948 267.564C108.192 267.745 108.387 267.962 108.532 268.214C108.68 268.468 108.791 268.727 108.864 268.992C108.91 269.161 108.943 269.36 108.962 269.591C108.985 269.823 108.962 270.059 108.895 270.298C108.829 270.54 108.691 270.763 108.48 270.969C108.268 271.174 107.954 271.334 107.536 271.449L104.071 272.402L103.849 271.594L104.561 271.398L104.55 271.357C104.421 271.334 104.273 271.276 104.108 271.184C103.943 271.092 103.785 270.953 103.636 270.765C103.486 270.578 103.369 270.332 103.285 270.026ZM104.045 269.949C104.133 270.269 104.27 270.521 104.455 270.706C104.642 270.893 104.85 271.015 105.079 271.072C105.309 271.131 105.534 271.131 105.753 271.071L106.492 270.867C106.442 270.844 106.383 270.779 106.317 270.672C106.254 270.567 106.189 270.442 106.122 270.299C106.059 270.157 105.998 270.017 105.941 269.881C105.887 269.746 105.842 269.637 105.807 269.553C105.722 269.351 105.623 269.167 105.511 269.001C105.402 268.837 105.272 268.716 105.12 268.637C104.971 268.56 104.794 268.55 104.589 268.606C104.308 268.684 104.124 268.846 104.038 269.093C103.954 269.342 103.956 269.628 104.045 269.949ZM109.583 276.48L109.178 275.81C109.287 275.731 109.386 275.632 109.475 275.511C109.568 275.392 109.631 275.247 109.665 275.076C109.699 274.905 109.683 274.701 109.619 274.466C109.53 274.144 109.382 273.897 109.175 273.723C108.97 273.551 108.755 273.496 108.529 273.558C108.328 273.613 108.19 273.73 108.113 273.908C108.037 274.086 108.003 274.341 108.011 274.673L108.034 275.506C108.049 276.008 107.971 276.406 107.799 276.702C107.63 276.996 107.361 277.194 106.994 277.295C106.692 277.378 106.399 277.365 106.114 277.257C105.83 277.151 105.577 276.963 105.355 276.693C105.133 276.422 104.966 276.083 104.854 275.674C104.706 275.138 104.7 274.662 104.836 274.246C104.973 273.831 105.251 273.514 105.673 273.298L106.076 274.012C105.813 274.163 105.639 274.359 105.553 274.601C105.468 274.846 105.471 275.134 105.562 275.464C105.666 275.841 105.828 276.118 106.048 276.296C106.272 276.475 106.497 276.533 106.723 276.471C106.905 276.421 107.041 276.315 107.129 276.153C107.219 275.991 107.259 275.769 107.248 275.487L107.212 274.554C107.194 274.041 107.273 273.638 107.451 273.346C107.631 273.056 107.903 272.861 108.266 272.761C108.562 272.68 108.848 272.691 109.122 272.795C109.397 272.901 109.639 273.081 109.849 273.335C110.059 273.591 110.215 273.904 110.317 274.274C110.46 274.795 110.459 275.235 110.312 275.594C110.166 275.956 109.923 276.251 109.583 276.48ZM111.751 279.755L111.067 279.943L110.317 277.218L111.002 277.03L111.751 279.755ZM112.48 277.477L112.702 278.285L107.69 279.664C107.461 279.727 107.299 279.807 107.203 279.905C107.11 280.004 107.059 280.112 107.049 280.227C107.042 280.345 107.055 280.463 107.088 280.581C107.112 280.67 107.137 280.742 107.162 280.797C107.189 280.851 107.21 280.894 107.227 280.926L106.546 281.29C106.51 281.241 106.469 281.17 106.421 281.078C106.371 280.986 106.326 280.865 106.284 280.714C106.221 280.486 106.209 280.249 106.247 280.002C106.285 279.759 106.385 279.537 106.547 279.338C106.709 279.141 106.942 279.001 107.248 278.917L112.48 277.477ZM107.308 284.596C107.169 284.089 107.16 283.621 107.283 283.192C107.408 282.765 107.646 282.396 107.995 282.087C108.347 281.779 108.793 281.55 109.332 281.402C109.87 281.254 110.372 281.222 110.837 281.305C111.305 281.39 111.703 281.577 112.031 281.868C112.361 282.16 112.592 282.543 112.723 283.018C112.798 283.292 112.827 283.575 112.809 283.867C112.791 284.159 112.71 284.443 112.564 284.719C112.422 284.994 112.2 285.243 111.901 285.465C111.601 285.688 111.206 285.866 110.715 286.001L110.372 286.095L109.257 282.041L109.956 281.849L110.845 285.082C111.142 285 111.39 284.868 111.59 284.685C111.791 284.504 111.929 284.287 112.004 284.033C112.08 283.782 112.077 283.51 111.997 283.218C111.908 282.896 111.752 282.639 111.527 282.448C111.306 282.259 111.051 282.136 110.763 282.08C110.475 282.024 110.186 282.036 109.896 282.116L109.431 282.244C109.034 282.353 108.716 282.515 108.477 282.727C108.242 282.942 108.086 283.192 108.01 283.479C107.936 283.764 107.944 284.07 108.034 284.396C108.092 284.609 108.175 284.792 108.281 284.947C108.391 285.104 108.523 285.228 108.679 285.32C108.836 285.412 109.016 285.467 109.217 285.485L109.213 286.326C108.926 286.317 108.655 286.243 108.401 286.104C108.149 285.964 107.927 285.767 107.737 285.513C107.549 285.258 107.406 284.952 107.308 284.596ZM108.355 287.973L113.614 286.526L113.829 287.306L113.034 287.525L113.05 287.58C113.336 287.604 113.595 287.719 113.826 287.926C114.057 288.132 114.216 288.393 114.303 288.708C114.319 288.768 114.338 288.842 114.361 288.932C114.383 289.021 114.398 289.09 114.406 289.137L113.584 289.363C113.583 289.333 113.577 289.268 113.563 289.166C113.553 289.066 113.533 288.962 113.503 288.855C113.433 288.599 113.317 288.385 113.154 288.214C112.994 288.044 112.805 287.927 112.586 287.862C112.369 287.799 112.143 287.8 111.905 287.865L108.577 288.781L108.355 287.973ZM109.776 293.567C109.64 293.074 109.64 292.617 109.775 292.197C109.91 291.777 110.155 291.415 110.511 291.11C110.867 290.806 111.307 290.582 111.832 290.438C112.366 290.291 112.865 290.259 113.327 290.343C113.793 290.429 114.189 290.617 114.517 290.907C114.848 291.199 115.079 291.582 115.209 292.057C115.311 292.427 115.334 292.779 115.279 293.113C115.224 293.448 115.099 293.744 114.904 294.001C114.71 294.258 114.455 294.455 114.139 294.591L113.916 293.783C114.139 293.655 114.314 293.46 114.44 293.197C114.57 292.935 114.585 292.627 114.487 292.271C114.401 291.956 114.242 291.702 114.013 291.51C113.786 291.319 113.506 291.199 113.173 291.148C112.843 291.099 112.479 291.129 112.082 291.238C111.676 291.35 111.339 291.511 111.073 291.722C110.808 291.935 110.624 292.182 110.522 292.463C110.421 292.746 110.414 293.047 110.502 293.367C110.56 293.577 110.649 293.758 110.769 293.909C110.889 294.06 111.034 294.176 111.203 294.257C111.373 294.338 111.561 294.377 111.766 294.375L111.988 295.183C111.665 295.222 111.355 295.186 111.056 295.074C110.761 294.964 110.499 294.782 110.272 294.528C110.048 294.275 109.883 293.955 109.776 293.567ZM111.082 298.367C110.99 298.034 110.97 297.714 111.021 297.408C111.074 297.101 111.198 296.835 111.394 296.609C111.592 296.383 111.862 296.223 112.204 296.129C112.506 296.046 112.766 296.038 112.986 296.105C113.208 296.172 113.4 296.29 113.562 296.459C113.724 296.628 113.864 296.825 113.983 297.05C114.104 297.277 114.214 297.508 114.314 297.744C114.443 298.052 114.545 298.302 114.62 298.495C114.698 298.69 114.776 298.826 114.853 298.903C114.932 298.982 115.036 299.003 115.166 298.968L115.193 298.96C115.531 298.867 115.768 298.702 115.904 298.466C116.041 298.232 116.059 297.929 115.956 297.557C115.85 297.171 115.683 296.892 115.453 296.719C115.224 296.546 115.001 296.442 114.785 296.406L114.848 295.563C115.205 295.612 115.504 295.727 115.745 295.906C115.989 296.087 116.184 296.303 116.329 296.556C116.478 296.809 116.588 297.069 116.661 297.333C116.707 297.502 116.74 297.702 116.759 297.932C116.782 298.165 116.759 298.4 116.693 298.64C116.626 298.881 116.488 299.105 116.277 299.31C116.066 299.516 115.751 299.676 115.333 299.791L111.868 300.744L111.646 299.936L112.358 299.74L112.347 299.699C112.218 299.675 112.07 299.618 111.905 299.526C111.74 299.434 111.582 299.294 111.433 299.107C111.283 298.92 111.166 298.673 111.082 298.367ZM111.842 298.291C111.93 298.611 112.067 298.863 112.252 299.047C112.439 299.234 112.647 299.356 112.876 299.413C113.106 299.473 113.331 299.472 113.55 299.412L114.289 299.209C114.239 299.186 114.18 299.121 114.114 299.014C114.051 298.908 113.986 298.784 113.919 298.64C113.856 298.498 113.795 298.359 113.738 298.222C113.684 298.087 113.639 297.978 113.604 297.895C113.519 297.692 113.42 297.508 113.308 297.342C113.199 297.178 113.069 297.057 112.917 296.979C112.768 296.902 112.591 296.891 112.386 296.948C112.105 297.025 111.921 297.188 111.835 297.435C111.751 297.684 111.753 297.969 111.842 298.291ZM112.274 302.219L117.533 300.772L117.748 301.553L116.954 301.771L116.969 301.826C117.255 301.85 117.514 301.966 117.745 302.172C117.977 302.379 118.135 302.639 118.222 302.954C118.238 303.014 118.258 303.088 118.28 303.178C118.302 303.268 118.317 303.336 118.325 303.383L117.503 303.609C117.503 303.579 117.496 303.514 117.482 303.412C117.472 303.312 117.452 303.208 117.423 303.101C117.352 302.845 117.236 302.631 117.073 302.46C116.914 302.29 116.724 302.173 116.505 302.108C116.289 302.045 116.062 302.046 115.824 302.111L112.496 303.027L112.274 302.219ZM113.654 307.662C113.533 307.224 113.537 306.807 113.667 306.41C113.798 306.013 114.041 305.664 114.395 305.363C114.751 305.061 115.208 304.833 115.765 304.68C116.317 304.528 116.823 304.491 117.281 304.569C117.74 304.646 118.126 304.824 118.44 305.1C118.755 305.377 118.973 305.737 119.095 306.18C119.189 306.522 119.206 306.809 119.147 307.039C119.09 307.27 119.004 307.458 118.89 307.603C118.778 307.749 118.684 307.864 118.609 307.949L118.628 308.017L121.216 307.305L121.439 308.113L114.426 310.042L114.212 309.262L115.02 309.04L114.993 308.944C114.881 308.911 114.737 308.859 114.561 308.79C114.387 308.72 114.215 308.599 114.045 308.427C113.877 308.255 113.747 308 113.654 307.662ZM114.41 307.572C114.499 307.896 114.659 308.147 114.889 308.324C115.122 308.501 115.405 308.606 115.738 308.639C116.074 308.672 116.44 308.634 116.838 308.525C117.23 308.417 117.558 308.265 117.821 308.07C118.086 307.874 118.27 307.642 118.373 307.373C118.478 307.103 118.486 306.804 118.395 306.476C118.301 306.133 118.135 305.872 117.896 305.692C117.66 305.514 117.377 305.409 117.047 305.377C116.72 305.347 116.371 305.383 116.001 305.484C115.627 305.587 115.302 305.738 115.028 305.936C114.756 306.136 114.561 306.374 114.443 306.649C114.328 306.927 114.317 307.234 114.41 307.572Z" fill="black"/>
</g>
<rect x="87.8446" y="18" width="174" height="289" rx="11" transform="rotate(0.365705 87.8446 18)" fill="url(#paint1_linear_0_1)"/>
<path d="M137.702 167.556C137.702 166.807 137.906 166.169 138.313 165.642C138.724 165.115 139.319 164.712 140.098 164.434C140.88 164.155 141.825 164.016 142.932 164.016C144.032 164.016 144.972 164.155 145.751 164.434C146.533 164.715 147.13 165.12 147.541 165.647C147.955 166.177 148.162 166.813 148.162 167.556C148.162 168.298 147.955 168.933 147.541 169.46C147.13 169.99 146.533 170.394 145.751 170.673C144.972 170.955 144.032 171.095 142.932 171.095C141.825 171.095 140.88 170.956 140.098 170.678C139.319 170.399 138.724 169.997 138.313 169.47C137.906 168.943 137.702 168.305 137.702 167.556ZM138.796 167.556C138.796 168.298 139.154 168.875 139.869 169.286C140.585 169.697 141.606 169.902 142.932 169.902C143.814 169.902 144.564 169.808 145.184 169.619C145.804 169.433 146.276 169.165 146.601 168.813C146.926 168.465 147.088 168.046 147.088 167.556C147.088 166.82 146.725 166.245 145.999 165.831C145.277 165.416 144.254 165.209 142.932 165.209C142.05 165.209 141.301 165.302 140.685 165.487C140.068 165.673 139.599 165.94 139.278 166.288C138.956 166.639 138.796 167.062 138.796 167.556ZM148.023 176.564H137.841V175.331H146.73V175.272L145.08 172.786H146.333L148.023 175.331V176.564ZM148.5 183.112L136.31 179.831V178.757L148.5 182.038V183.112ZM137.841 184.483H138.736L142.415 187.843C142.846 188.238 143.22 188.563 143.539 188.818C143.86 189.073 144.162 189.262 144.443 189.385C144.728 189.511 145.027 189.574 145.338 189.574C145.696 189.574 146.006 189.487 146.268 189.315C146.53 189.146 146.732 188.914 146.874 188.619C147.017 188.324 147.088 187.993 147.088 187.625C147.088 187.234 147.007 186.892 146.845 186.601C146.686 186.312 146.462 186.089 146.173 185.929C145.885 185.774 145.547 185.696 145.159 185.696V184.522C145.756 184.522 146.28 184.66 146.73 184.935C147.181 185.21 147.532 185.585 147.784 186.059C148.036 186.536 148.162 187.071 148.162 187.665C148.162 188.261 148.036 188.79 147.784 189.25C147.532 189.711 147.193 190.072 146.765 190.334C146.338 190.596 145.862 190.727 145.338 190.727C144.964 190.727 144.597 190.659 144.24 190.523C143.885 190.391 143.489 190.159 143.051 189.827C142.617 189.499 142.087 189.043 141.46 188.46L139.014 186.173H138.935V190.906H137.841V184.483ZM137.702 196.4C137.702 195.743 137.815 195.158 138.04 194.645C138.265 194.134 138.579 193.728 138.98 193.427C139.384 193.128 139.853 192.966 140.387 192.939V194.192C140.058 194.219 139.775 194.331 139.536 194.53C139.301 194.729 139.119 194.989 138.99 195.311C138.86 195.632 138.796 195.989 138.796 196.38C138.796 196.817 138.872 197.205 139.024 197.543C139.177 197.881 139.389 198.146 139.661 198.339C139.932 198.531 140.247 198.627 140.605 198.627C140.98 198.627 141.31 198.534 141.595 198.348C141.883 198.163 142.108 197.891 142.271 197.533C142.433 197.175 142.514 196.738 142.514 196.221V195.405H143.608V196.221C143.608 196.625 143.681 196.98 143.827 197.285C143.973 197.593 144.178 197.833 144.443 198.005C144.708 198.181 145.02 198.269 145.378 198.269C145.723 198.269 146.023 198.193 146.278 198.04C146.533 197.888 146.732 197.672 146.874 197.394C147.017 197.119 147.088 196.794 147.088 196.419C147.088 196.068 147.024 195.737 146.894 195.425C146.768 195.117 146.584 194.865 146.342 194.669C146.104 194.474 145.815 194.368 145.477 194.351V193.158C146.011 193.178 146.478 193.339 146.879 193.64C147.284 193.942 147.599 194.336 147.824 194.824C148.049 195.314 148.162 195.853 148.162 196.439C148.162 197.069 148.034 197.609 147.779 198.06C147.527 198.511 147.194 198.857 146.78 199.099C146.366 199.341 145.918 199.462 145.438 199.462C144.864 199.462 144.375 199.311 143.971 199.01C143.567 198.711 143.287 198.305 143.131 197.792H143.051C142.945 198.435 142.672 198.937 142.231 199.298C141.793 199.659 141.252 199.84 140.605 199.84C140.052 199.84 139.555 199.689 139.114 199.388C138.676 199.089 138.332 198.682 138.08 198.165C137.828 197.647 137.702 197.059 137.702 196.4Z" fill="black"/>
<path d="M125.841 34.4607H136.75V41.0445H135.578V35.7817H131.892V40.7036H130.72V35.7817H127.013V41.1297H125.841V34.4607ZM125.841 43.0207H126.8L132.766 47.6656H132.851V43.1698H134.023V49.2849H133.021L127.098 44.7678H127.013V49.434H125.841V43.0207ZM122.602 54.4385C122.602 53.8312 122.681 53.3092 122.837 52.8724C122.99 52.4356 123.192 52.0716 123.444 51.7805C123.693 51.4928 123.959 51.2638 124.243 51.0933L124.946 52.0947C124.797 52.2084 124.627 52.3522 124.435 52.5262C124.24 52.7002 124.071 52.9381 123.929 53.24C123.783 53.5454 123.71 53.9449 123.71 54.4385C123.71 55.099 123.87 55.6441 124.19 56.0738C124.509 56.5035 125.01 56.7183 125.692 56.7183H127.354V56.6118C127.205 56.5194 127.02 56.3881 126.8 56.2176C126.583 56.0507 126.39 55.8092 126.219 55.4932C126.052 55.1807 125.969 54.7581 125.969 54.2254C125.969 53.5649 126.125 52.9719 126.438 52.4463C126.75 51.9243 127.205 51.5106 127.801 51.2052C128.398 50.9033 129.122 50.7524 129.975 50.7524C130.813 50.7524 131.542 50.8998 132.164 51.1945C132.789 51.4893 133.272 51.8994 133.613 52.425C133.957 52.9506 134.129 53.5578 134.129 54.2467C134.129 54.7794 134.041 55.202 133.863 55.5145C133.689 55.8305 133.49 56.072 133.266 56.2389C133.046 56.4094 132.865 56.5407 132.723 56.6331V56.7609H134.023V57.9754H125.607C124.904 57.9754 124.332 57.8156 123.891 57.496C123.448 57.18 123.123 56.7538 122.917 56.2176C122.707 55.6849 122.602 55.0919 122.602 54.4385ZM127.098 54.3959C127.098 54.9001 127.214 55.3263 127.444 55.6743C127.675 56.0223 128.007 56.2868 128.44 56.468C128.874 56.6491 129.392 56.7396 129.996 56.7396C130.585 56.7396 131.106 56.6508 131.557 56.4733C132.008 56.2957 132.361 56.0329 132.617 55.6849C132.872 55.3369 133 54.9072 133 54.3959C133 53.8632 132.865 53.4193 132.595 53.0642C132.325 52.7126 131.963 52.4481 131.509 52.2705C131.054 52.0965 130.55 52.0095 129.996 52.0095C129.428 52.0095 128.925 52.0983 128.488 52.2758C128.055 52.4569 127.714 52.7233 127.466 53.0748C127.221 53.43 127.098 53.8703 127.098 54.3959ZM125.841 60.2765H134.023V61.5336H125.841V60.2765ZM135.387 60.9157C135.387 60.6707 135.47 60.4594 135.637 60.2819C135.804 60.1079 136.004 60.0209 136.239 60.0209C136.473 60.0209 136.674 60.1079 136.841 60.2819C137.008 60.4594 137.091 60.6707 137.091 60.9157C137.091 61.1608 137.008 61.3703 136.841 61.5443C136.674 61.7219 136.473 61.8106 136.239 61.8106C136.004 61.8106 135.804 61.7219 135.637 61.5443C135.47 61.3703 135.387 61.1608 135.387 60.9157ZM125.841 68.2253H136.75V74.8091H135.578V69.5463H131.892V74.4682H130.72V69.5463H127.013V74.8944H125.841V68.2253ZM125.671 80.1092C125.671 79.4274 125.843 78.8255 126.187 78.3034C126.535 77.7814 127.025 77.373 127.657 77.0783C128.293 76.7836 129.044 76.6362 129.911 76.6362C130.77 76.6362 131.516 76.7836 132.148 77.0783C132.78 77.373 133.268 77.7832 133.613 78.3088C133.957 78.8343 134.129 79.4416 134.129 80.1305C134.129 80.6632 134.041 81.084 133.863 81.3929C133.689 81.7054 133.49 81.9434 133.266 82.1067C133.046 82.2736 132.865 82.4032 132.723 82.4956V82.6021H136.75V83.8592H125.841V82.6447H127.098V82.4956C126.949 82.4032 126.761 82.2718 126.534 82.1014C126.31 81.9309 126.109 81.6877 125.932 81.3716C125.758 81.0556 125.671 80.6348 125.671 80.1092ZM126.8 80.2797C126.8 80.7839 126.931 81.21 127.194 81.5581C127.46 81.9061 127.828 82.1706 128.297 82.3517C128.769 82.5328 129.314 82.6234 129.932 82.6234C130.543 82.6234 131.077 82.5346 131.535 82.3571C131.997 82.1795 132.356 81.9167 132.611 81.5687C132.871 81.2207 133 80.791 133 80.2797C133 79.747 132.863 79.3031 132.59 78.948C132.32 78.5964 131.953 78.3319 131.487 78.1543C131.026 77.9803 130.507 77.8933 129.932 77.8933C129.35 77.8933 128.82 77.9821 128.345 78.1596C127.872 78.3407 127.496 78.6071 127.215 78.9586C126.938 79.3137 126.8 79.7541 126.8 80.2797ZM125.841 86.3361H134.023V87.5932H125.841V86.3361ZM135.387 86.9753C135.387 86.7303 135.47 86.519 135.637 86.3414C135.804 86.1674 136.004 86.0804 136.239 86.0804C136.473 86.0804 136.674 86.1674 136.841 86.3414C137.008 86.519 137.091 86.7303 137.091 86.9753C137.091 87.2203 137.008 87.4299 136.841 87.6039C136.674 87.7814 136.473 87.8702 136.239 87.8702C136.004 87.8702 135.804 87.7814 135.637 87.6039C135.47 87.4299 135.387 87.2203 135.387 86.9753ZM125.841 89.6613H126.8L132.766 94.3062H132.851V89.8105H134.023V95.9255H133.021L127.098 91.4085H127.013V96.0747H125.841V89.6613Z" fill="black"/>
<path d="M201.526 34.4409H202.83L211.932 40.1937V41.1397H209.912V40.5005L203.034 36.1539H202.932V43.9011H201.526V34.4409ZM198.841 40.6028H201.922H202.529H211.932V42.1113H198.841V40.6028ZM198.662 50.3874C198.662 49.6374 198.811 48.962 199.11 48.3612C199.408 47.7603 199.817 47.2788 200.337 46.9165C200.857 46.5543 201.449 46.3562 202.114 46.3221V47.8562C201.521 47.9158 201.031 48.1843 200.644 48.6616C200.26 49.1431 200.068 49.7184 200.068 50.3874C200.068 50.9244 200.194 51.4016 200.445 51.8192C200.697 52.2411 201.042 52.5714 201.481 52.81C201.924 53.0529 202.425 53.1744 202.983 53.1744C203.554 53.1744 204.063 53.0487 204.511 52.7972C204.963 52.5501 205.318 52.2092 205.578 51.7745C205.838 51.3398 205.97 50.8434 205.975 50.2852C205.979 49.8846 205.917 49.4734 205.789 49.0515C205.666 48.6296 205.506 48.2823 205.31 48.0096L205.489 46.5266L211.932 47.3192V54.1204H210.526V48.6488L206.665 48.1886V48.2653C206.878 48.5337 207.055 48.8704 207.195 49.2752C207.336 49.68 207.406 50.1019 207.406 50.5408C207.406 51.342 207.215 52.0558 206.831 52.6822C206.452 53.3129 205.932 53.8072 205.271 54.1651C204.611 54.5273 203.857 54.7085 203.009 54.7085C202.173 54.7085 201.428 54.521 200.771 54.146C200.119 53.7752 199.604 53.2638 199.225 52.6119C198.85 51.9599 198.662 51.2184 198.662 50.3874ZM198.662 61.671C198.662 60.8272 198.807 60.0751 199.097 59.4146C199.387 58.7583 199.789 58.2363 200.305 57.8485C200.825 57.465 201.428 57.2562 202.114 57.2221V58.8329C201.692 58.867 201.328 59.0119 201.021 59.2676C200.718 59.5233 200.484 59.8578 200.318 60.2711C200.151 60.6845 200.068 61.1426 200.068 61.6454C200.068 62.2079 200.166 62.7065 200.362 63.1412C200.558 63.5758 200.831 63.9167 201.181 64.1639C201.53 64.411 201.935 64.5346 202.395 64.5346C202.877 64.5346 203.301 64.4153 203.667 64.1767C204.038 63.938 204.328 63.5886 204.536 63.1284C204.745 62.6681 204.85 62.1056 204.85 61.4409V60.3926H206.256V61.4409C206.256 61.9608 206.35 62.4167 206.537 62.8088C206.725 63.2051 206.989 63.514 207.33 63.7356C207.671 63.9615 208.071 64.0744 208.531 64.0744C208.975 64.0744 209.36 63.9764 209.688 63.7804C210.016 63.5843 210.272 63.3074 210.455 62.9494C210.639 62.5957 210.73 62.1781 210.73 61.6966C210.73 61.2449 210.647 60.8187 210.481 60.4181C210.319 60.0218 210.083 59.698 209.771 59.4466C209.465 59.1951 209.094 59.0588 208.659 59.0375V57.5034C209.345 57.5289 209.946 57.7356 210.462 58.1234C210.982 58.5112 211.387 59.0183 211.676 59.6447C211.966 60.2754 212.111 60.9679 212.111 61.7221C212.111 62.5318 211.947 63.2264 211.619 63.8059C211.295 64.3855 210.867 64.8308 210.334 65.1419C209.801 65.4529 209.226 65.6085 208.608 65.6085C207.871 65.6085 207.242 65.4146 206.722 65.0268C206.203 64.6433 205.842 64.1213 205.642 63.4608H205.54C205.404 64.2875 205.052 64.9331 204.485 65.3976C203.923 65.862 203.226 66.0943 202.395 66.0943C201.683 66.0943 201.044 65.9004 200.477 65.5126C199.915 65.1291 199.472 64.6049 199.148 63.9402C198.824 63.2754 198.662 62.519 198.662 61.671ZM198.662 73.0552C198.671 72.5183 198.773 71.9814 198.969 71.4444C199.165 70.9075 199.495 70.4174 199.96 69.9743C200.428 69.5311 201.061 69.1752 201.858 68.9068C202.659 68.6383 203.665 68.5041 204.875 68.5041C206.034 68.5041 207.061 68.6127 207.956 68.8301C208.855 69.0474 209.612 69.3627 210.225 69.7761C210.843 70.1895 211.312 70.688 211.632 71.2718C211.951 71.8599 212.111 72.5225 212.111 73.2598C212.111 73.9927 211.964 74.6447 211.67 75.2157C211.38 75.791 210.975 76.2598 210.455 76.622C209.936 76.9842 209.337 77.2186 208.659 77.3251V75.7654C209.247 75.6206 209.735 75.3393 210.123 74.9217C210.511 74.5041 210.705 73.9501 210.705 73.2598C210.705 72.2456 210.264 71.4466 209.382 70.8627C208.499 70.2832 207.262 69.9913 205.668 69.987V70.0893C206.03 70.3279 206.339 70.6113 206.595 70.9395C206.855 71.2718 207.055 71.6383 207.195 72.0389C207.336 72.4395 207.406 72.8635 207.406 73.3109C207.406 74.0609 207.219 74.747 206.844 75.3691C206.473 75.9913 205.96 76.4899 205.303 76.8649C204.651 77.2399 203.904 77.4274 203.06 77.4274C202.25 77.4274 201.509 77.2463 200.835 76.8841C200.166 76.5218 199.634 76.0126 199.237 75.3564C198.845 74.7044 198.654 73.9373 198.662 73.0552ZM200.068 73.0552C200.068 73.5922 200.203 74.0737 200.471 74.4998C200.74 74.9302 201.1 75.269 201.551 75.5162C202.003 75.7676 202.506 75.8933 203.06 75.8933C203.601 75.8933 204.093 75.7718 204.536 75.5289C204.984 75.2903 205.34 74.9601 205.604 74.5382C205.868 74.1206 206 73.6433 206 73.1064C206 72.7015 205.919 72.3244 205.757 71.975C205.6 71.6255 205.382 71.3187 205.105 71.0545C204.828 70.7946 204.511 70.59 204.153 70.4409C203.799 70.2917 203.426 70.2172 203.034 70.2172C202.514 70.2172 202.029 70.3386 201.577 70.5815C201.125 70.8287 200.761 71.1653 200.484 71.5914C200.207 72.0218 200.068 72.5098 200.068 73.0552ZM198.841 85.4126L210.423 91.2678H210.526V84.5178H211.932V92.9041H210.449L198.841 87.0746V85.4126ZM198.662 99.2163C198.662 98.3384 198.818 97.5629 199.129 96.8896C199.444 96.2205 199.877 95.6985 200.426 95.3235C200.98 94.9485 201.611 94.7631 202.318 94.7674C202.872 94.7631 203.384 94.8718 203.852 95.0934C204.325 95.315 204.72 95.6175 205.035 96.0011C205.355 96.3888 205.557 96.8214 205.642 97.2987H205.719C205.881 96.6722 206.232 96.1737 206.774 95.8029C207.319 95.4322 207.939 95.2489 208.634 95.2532C209.298 95.2489 209.893 95.4173 210.417 95.7582C210.941 96.0991 211.355 96.5678 211.657 97.1644C211.96 97.7653 212.111 98.4492 212.111 99.2163C212.111 99.9748 211.96 100.652 211.657 101.249C211.355 101.846 210.941 102.314 210.417 102.655C209.893 103 209.298 103.175 208.634 103.179C207.939 103.175 207.319 102.985 206.774 102.61C206.232 102.24 205.881 101.748 205.719 101.134H205.642C205.557 101.607 205.355 102.033 205.035 102.412C204.72 102.792 204.325 103.094 203.852 103.32C203.384 103.546 202.872 103.661 202.318 103.665C201.611 103.661 200.98 103.469 200.426 103.09C199.877 102.715 199.444 102.193 199.129 101.524C198.818 100.859 198.662 100.09 198.662 99.2163ZM200.068 99.2163C200.068 99.8086 200.164 100.32 200.356 100.75C200.548 101.181 200.818 101.513 201.168 101.748C201.517 101.982 201.926 102.101 202.395 102.105C202.889 102.101 203.326 101.973 203.705 101.722C204.085 101.471 204.383 101.127 204.6 100.693C204.818 100.262 204.926 99.7702 204.926 99.2163C204.926 98.658 204.818 98.1594 204.6 97.7205C204.383 97.2859 204.085 96.9428 203.705 96.6914C203.326 96.4442 202.889 96.3228 202.395 96.3271C201.926 96.3228 201.517 96.4357 201.168 96.6658C200.818 96.9002 200.548 97.2347 200.356 97.6694C200.164 98.104 200.068 98.6197 200.068 99.2163ZM206.281 99.2163C206.281 99.685 206.375 100.1 206.563 100.463C206.75 100.829 207.012 101.117 207.349 101.326C207.686 101.534 208.08 101.641 208.531 101.645C208.975 101.641 209.36 101.537 209.688 101.332C210.021 101.127 210.276 100.844 210.455 100.482C210.639 100.12 210.73 99.6978 210.73 99.2163C210.73 98.7262 210.639 98.2979 210.455 97.9315C210.276 97.565 210.021 97.2816 209.688 97.0813C209.36 96.881 208.975 96.783 208.531 96.7873C208.08 96.783 207.686 96.8832 207.349 97.0877C207.012 97.2965 206.75 97.5842 206.563 97.9506C206.375 98.3171 206.281 98.739 206.281 99.2163ZM212.111 110.282C212.107 110.819 212.004 111.356 211.804 111.893C211.604 112.43 211.271 112.92 210.807 113.363C210.347 113.807 209.718 114.162 208.921 114.431C208.124 114.699 207.125 114.834 205.923 114.834C204.76 114.834 203.727 114.723 202.823 114.501C201.924 114.284 201.166 113.969 200.548 113.555C199.93 113.146 199.461 112.648 199.141 112.059C198.822 111.476 198.662 110.815 198.662 110.078C198.662 109.345 198.807 108.691 199.097 108.116C199.391 107.545 199.798 107.076 200.318 106.709C200.842 106.347 201.449 106.115 202.139 106.013V107.572C201.539 107.713 201.042 107.992 200.65 108.41C200.262 108.831 200.068 109.388 200.068 110.078C200.068 111.088 200.509 111.885 201.391 112.469C202.274 113.057 203.52 113.351 205.131 113.351V113.248C204.773 113.01 204.464 112.726 204.204 112.398C203.944 112.07 203.744 111.706 203.603 111.305C203.463 110.905 203.392 110.479 203.392 110.027C203.392 109.277 203.578 108.589 203.948 107.962C204.323 107.34 204.837 106.841 205.489 106.466C206.145 106.096 206.895 105.91 207.739 105.91C208.54 105.91 209.273 106.089 209.938 106.447C210.607 106.809 211.139 107.317 211.536 107.969C211.932 108.625 212.124 109.396 212.111 110.282ZM210.705 110.282C210.705 109.746 210.57 109.262 210.302 108.831C210.038 108.405 209.68 108.067 209.228 107.815C208.781 107.568 208.284 107.444 207.739 107.444C207.193 107.444 206.697 107.564 206.249 107.802C205.806 108.045 205.453 108.376 205.188 108.793C204.928 109.215 204.798 109.694 204.798 110.231C204.798 110.636 204.877 111.013 205.035 111.363C205.197 111.712 205.416 112.017 205.693 112.277C205.975 112.541 206.292 112.748 206.646 112.897C207.004 113.046 207.377 113.121 207.764 113.121C208.276 113.121 208.755 112.997 209.203 112.75C209.65 112.507 210.012 112.17 210.289 111.74C210.566 111.314 210.705 110.828 210.705 110.282ZM198.662 121.617C198.662 120.654 198.924 119.834 199.448 119.156C199.977 118.479 200.742 117.961 201.743 117.603C202.749 117.245 203.963 117.066 205.387 117.066C206.801 117.066 208.009 117.245 209.011 117.603C210.016 117.965 210.784 118.485 211.312 119.163C211.845 119.844 212.111 120.663 212.111 121.617C212.111 122.572 211.845 123.388 211.312 124.065C210.784 124.747 210.016 125.267 209.011 125.625C208.009 125.987 206.801 126.168 205.387 126.168C203.963 126.168 202.749 125.989 201.743 125.631C200.742 125.273 199.977 124.756 199.448 124.078C198.924 123.401 198.662 122.58 198.662 121.617ZM200.068 121.617C200.068 122.572 200.529 123.313 201.449 123.842C202.369 124.37 203.682 124.634 205.387 124.634C206.52 124.634 207.485 124.513 208.282 124.27C209.079 124.031 209.686 123.686 210.104 123.234C210.521 122.787 210.73 122.248 210.73 121.617C210.73 120.671 210.264 119.932 209.33 119.399C208.401 118.866 207.087 118.6 205.387 118.6C204.253 118.6 203.29 118.719 202.497 118.958C201.705 119.197 201.102 119.54 200.688 119.987C200.275 120.439 200.068 120.982 200.068 121.617ZM198.841 133.66H199.992L204.722 137.981C205.276 138.488 205.757 138.906 206.166 139.234C206.58 139.562 206.967 139.805 207.33 139.962C207.696 140.124 208.08 140.205 208.48 140.205C208.94 140.205 209.339 140.094 209.676 139.873C210.012 139.656 210.272 139.357 210.455 138.978C210.639 138.599 210.73 138.173 210.73 137.7C210.73 137.197 210.626 136.758 210.417 136.383C210.213 136.012 209.925 135.724 209.554 135.52C209.183 135.32 208.749 135.219 208.25 135.219V133.711C209.017 133.711 209.69 133.888 210.27 134.241C210.85 134.595 211.301 135.077 211.625 135.686C211.949 136.3 212.111 136.988 212.111 137.751C212.111 138.518 211.949 139.197 211.625 139.79C211.301 140.382 210.865 140.847 210.315 141.183C209.765 141.52 209.154 141.688 208.48 141.688C207.999 141.688 207.528 141.601 207.068 141.426C206.612 141.256 206.102 140.957 205.54 140.531C204.982 140.109 204.3 139.523 203.494 138.773L200.35 135.833H200.247V141.918H198.841V133.66ZM198.662 148.982C198.662 148.138 198.807 147.386 199.097 146.725C199.387 146.069 199.789 145.547 200.305 145.159C200.825 144.776 201.428 144.567 202.114 144.533V146.143C201.692 146.178 201.328 146.322 201.021 146.578C200.718 146.834 200.484 147.168 200.318 147.582C200.151 147.995 200.068 148.453 200.068 148.956C200.068 149.518 200.166 150.017 200.362 150.452C200.558 150.886 200.831 151.227 201.181 151.474C201.53 151.722 201.935 151.845 202.395 151.845C202.877 151.845 203.301 151.726 203.667 151.487C204.038 151.249 204.328 150.899 204.536 150.439C204.745 149.979 204.85 149.416 204.85 148.751V147.703H206.256V148.751C206.256 149.271 206.35 149.727 206.537 150.119C206.725 150.516 206.989 150.825 207.33 151.046C207.671 151.272 208.071 151.385 208.531 151.385C208.975 151.385 209.36 151.287 209.688 151.091C210.016 150.895 210.272 150.618 210.455 150.26C210.639 149.906 210.73 149.489 210.73 149.007C210.73 148.555 210.647 148.129 210.481 147.729C210.319 147.332 210.083 147.009 209.771 146.757C209.465 146.506 209.094 146.369 208.659 146.348V144.814C209.345 144.839 209.946 145.046 210.462 145.434C210.982 145.822 211.387 146.329 211.676 146.955C211.966 147.586 212.111 148.278 212.111 149.033C212.111 149.842 211.947 150.537 211.619 151.116C211.295 151.696 210.867 152.141 210.334 152.452C209.801 152.763 209.226 152.919 208.608 152.919C207.871 152.919 207.242 152.725 206.722 152.337C206.203 151.954 205.842 151.432 205.642 150.771H205.54C205.404 151.598 205.052 152.244 204.485 152.708C203.923 153.173 203.226 153.405 202.395 153.405C201.683 153.405 201.044 153.211 200.477 152.823C199.915 152.44 199.472 151.915 199.148 151.251C198.824 150.586 198.662 149.83 198.662 148.982ZM198.841 156.019H199.992L204.722 160.34C205.276 160.847 205.757 161.265 206.166 161.593C206.58 161.921 206.967 162.164 207.33 162.322C207.696 162.484 208.08 162.565 208.48 162.565C208.94 162.565 209.339 162.454 209.676 162.232C210.012 162.015 210.272 161.717 210.455 161.337C210.639 160.958 210.73 160.532 210.73 160.059C210.73 159.556 210.626 159.117 210.417 158.742C210.213 158.371 209.925 158.084 209.554 157.879C209.183 157.679 208.749 157.579 208.25 157.579V156.07C209.017 156.07 209.69 156.247 210.27 156.601C210.85 156.955 211.301 157.436 211.625 158.045C211.949 158.659 212.111 159.347 212.111 160.11C212.111 160.877 211.949 161.557 211.625 162.149C211.301 162.741 210.865 163.206 210.315 163.543C209.765 163.879 209.154 164.048 208.48 164.048C207.999 164.048 207.528 163.96 207.068 163.786C206.612 163.615 206.102 163.317 205.54 162.891C204.982 162.469 204.3 161.883 203.494 161.133L200.35 158.192H200.247V164.278H198.841V156.019ZM198.662 171.009C198.662 170.259 198.811 169.583 199.11 168.982C199.408 168.381 199.817 167.9 200.337 167.538C200.857 167.175 201.449 166.977 202.114 166.943V168.477C201.521 168.537 201.031 168.805 200.644 169.283C200.26 169.764 200.068 170.339 200.068 171.009C200.068 171.545 200.194 172.023 200.445 172.44C200.697 172.862 201.042 173.192 201.481 173.431C201.924 173.674 202.425 173.795 202.983 173.795C203.554 173.795 204.063 173.67 204.511 173.418C204.963 173.171 205.318 172.83 205.578 172.396C205.838 171.961 205.97 171.464 205.975 170.906C205.979 170.506 205.917 170.094 205.789 169.673C205.666 169.251 205.506 168.903 205.31 168.631L205.489 167.148L211.932 167.94V174.741H210.526V169.27L206.665 168.81V168.886C206.878 169.155 207.055 169.491 207.195 169.896C207.336 170.301 207.406 170.723 207.406 171.162C207.406 171.963 207.215 172.677 206.831 173.303C206.452 173.934 205.932 174.428 205.271 174.786C204.611 175.148 203.857 175.33 203.009 175.33C202.173 175.33 201.428 175.142 200.771 174.767C200.119 174.396 199.604 173.885 199.225 173.233C198.85 172.581 198.662 171.839 198.662 171.009ZM198.841 182.931H199.992L204.722 187.252C205.276 187.759 205.757 188.177 206.166 188.505C206.58 188.833 206.967 189.076 207.33 189.234C207.696 189.396 208.08 189.477 208.48 189.477C208.94 189.477 209.339 189.366 209.676 189.144C210.012 188.927 210.272 188.629 210.455 188.249C210.639 187.87 210.73 187.444 210.73 186.971C210.73 186.468 210.626 186.029 210.417 185.654C210.213 185.284 209.925 184.996 209.554 184.791C209.183 184.591 208.749 184.491 208.25 184.491V182.982C209.017 182.982 209.69 183.159 210.27 183.513C210.85 183.867 211.301 184.348 211.625 184.958C211.949 185.571 212.111 186.259 212.111 187.022C212.111 187.789 211.949 188.469 211.625 189.061C211.301 189.654 210.865 190.118 210.315 190.455C209.765 190.791 209.154 190.96 208.48 190.96C207.999 190.96 207.528 190.872 207.068 190.698C206.612 190.527 206.102 190.229 205.54 189.803C204.982 189.381 204.3 188.795 203.494 188.045L200.35 185.105H200.247V191.19H198.841V182.931ZM198.662 197.921C198.662 197.171 198.811 196.495 199.11 195.894C199.408 195.294 199.817 194.812 200.337 194.45C200.857 194.088 201.449 193.889 202.114 193.855V195.389C201.521 195.449 201.031 195.718 200.644 196.195C200.26 196.676 200.068 197.252 200.068 197.921C200.068 198.458 200.194 198.935 200.445 199.352C200.697 199.774 201.042 200.105 201.481 200.343C201.924 200.586 202.425 200.708 202.983 200.708C203.554 200.708 204.063 200.582 204.511 200.33C204.963 200.083 205.318 199.742 205.578 199.308C205.838 198.873 205.97 198.377 205.975 197.818C205.979 197.418 205.917 197.007 205.789 196.585C205.666 196.163 205.506 195.816 205.31 195.543L205.489 194.06L211.932 194.852V201.654H210.526V196.182L206.665 195.722V195.798C206.878 196.067 207.055 196.404 207.195 196.808C207.336 197.213 207.406 197.635 207.406 198.074C207.406 198.875 207.215 199.589 206.831 200.215C206.452 200.846 205.932 201.34 205.271 201.698C204.611 202.061 203.857 202.242 203.009 202.242C202.173 202.242 201.428 202.054 200.771 201.679C200.119 201.308 199.604 200.797 199.225 200.145C198.85 199.493 198.662 198.752 198.662 197.921ZM198.841 204.781H199.992L204.722 209.102C205.276 209.609 205.757 210.027 206.166 210.355C206.58 210.683 206.967 210.926 207.33 211.083C207.696 211.245 208.08 211.326 208.48 211.326C208.94 211.326 209.339 211.216 209.676 210.994C210.012 210.777 210.272 210.478 210.455 210.099C210.639 209.72 210.73 209.294 210.73 208.821C210.73 208.318 210.626 207.879 210.417 207.504C210.213 207.133 209.925 206.846 209.554 206.641C209.183 206.441 208.749 206.341 208.25 206.341V204.832C209.017 204.832 209.69 205.009 210.27 205.363C210.85 205.716 211.301 206.198 211.625 206.807C211.949 207.421 212.111 208.109 212.111 208.872C212.111 209.639 211.949 210.319 211.625 210.911C211.301 211.503 210.865 211.968 210.315 212.304C209.765 212.641 209.154 212.809 208.48 212.809C207.999 212.809 207.528 212.722 207.068 212.547C206.612 212.377 206.102 212.078 205.54 211.652C204.982 211.23 204.3 210.645 203.494 209.895L200.35 206.954H200.247V213.039H198.841V204.781ZM198.841 216.088L210.423 221.944H210.526V215.194H211.932V223.58H210.449L198.841 217.75V216.088Z" fill="black"/>
<path d="M148.932 136.903L144.646 138.414V138.474L148.932 139.985V140.632L143.841 138.762V138.126L148.932 136.257V136.903ZM143.841 141.196V140.55L148.932 142.419V143.055L143.841 144.925V144.278L148.127 142.757V142.717L143.841 141.196ZM145.83 141.435V144.04H145.283V141.435H145.83ZM143.841 145.718H148.932V146.334H144.388V148.701H143.841V145.718ZM148.932 150.272H143.841V149.655H148.932V150.272ZM143.841 153.079V151.508H148.932V153.148C148.932 153.642 148.83 154.065 148.626 154.416C148.424 154.767 148.133 155.037 147.754 155.224C147.376 155.411 146.923 155.505 146.396 155.505C145.866 155.505 145.41 155.41 145.027 155.221C144.646 155.032 144.352 154.757 144.147 154.396C143.943 154.035 143.841 153.596 143.841 153.079ZM144.388 152.124V153.039C144.388 153.46 144.469 153.809 144.632 154.085C144.794 154.362 145.025 154.568 145.325 154.704C145.625 154.84 145.982 154.908 146.396 154.908C146.807 154.908 147.161 154.841 147.458 154.707C147.756 154.573 147.985 154.372 148.144 154.105C148.305 153.838 148.385 153.506 148.385 153.108V152.124H144.388ZM140.385 136.669H140.932V140.487H140.385V138.886H135.841V138.269H140.385V136.669ZM135.841 141.438H140.932V142.055H138.665V144.769H140.932V145.386H135.841V144.769H138.118V142.055H135.841V141.438ZM135.841 146.62H140.932V148.34C140.932 148.738 140.864 149.064 140.728 149.319C140.594 149.575 140.409 149.764 140.174 149.886C139.938 150.009 139.671 150.07 139.371 150.07C139.071 150.07 138.805 150.009 138.573 149.886C138.341 149.764 138.159 149.576 138.026 149.322C137.895 149.068 137.83 148.744 137.83 148.35V146.958H138.387V148.33C138.387 148.602 138.426 148.821 138.506 148.986C138.585 149.154 138.698 149.275 138.844 149.349C138.991 149.426 139.167 149.464 139.371 149.464C139.575 149.464 139.753 149.426 139.905 149.349C140.058 149.273 140.175 149.151 140.258 148.984C140.343 148.817 140.385 148.595 140.385 148.32V147.236H135.841V146.62ZM138.128 149.016L135.841 150.269V149.553L138.128 148.32V149.016ZM140.932 154.438V155.055H137.561C137.213 155.055 136.902 154.973 136.629 154.809C136.357 154.646 136.143 154.417 135.985 154.12C135.829 153.824 135.752 153.476 135.752 153.076C135.752 152.677 135.829 152.329 135.985 152.032C136.143 151.735 136.357 151.505 136.629 151.341C136.902 151.179 137.213 151.097 137.561 151.097H140.932V151.714H137.611C137.362 151.714 137.141 151.769 136.947 151.878C136.755 151.987 136.603 152.143 136.492 152.345C136.383 152.549 136.328 152.793 136.328 153.076C136.328 153.36 136.383 153.603 136.492 153.807C136.603 154.011 136.755 154.167 136.947 154.274C137.141 154.384 137.362 154.438 137.611 154.438H140.932Z" fill="black"/>
<path d="M120.091 265.75C120.091 270.582 124.009 274.5 128.841 274.5C133.674 274.5 137.591 270.582 137.591 265.75C137.591 260.918 133.674 257 128.841 257C124.009 257 120.091 260.918 120.091 265.75Z" fill="#EA001B"/>
<path d="M120.091 278.25C120.091 283.082 124.009 287 128.841 287C133.674 287 137.591 283.082 137.591 278.25C137.591 273.418 133.674 269.5 128.841 269.5C124.009 269.5 120.091 273.418 120.091 278.25Z" fill="#FFA200" fill-opacity="0.8"/>
<path d="M111.114 244.035V245.086L105.077 247.558V247.643L111.114 250.115V251.166H103.841V250.342H109.367V250.271L103.841 247.998V247.203L109.367 244.93V244.859H103.841V244.035H111.114ZM103.713 254.423C103.713 254.077 103.778 253.764 103.909 253.482C104.041 253.2 104.232 252.976 104.48 252.811C104.731 252.645 105.034 252.562 105.389 252.562C105.702 252.562 105.955 252.624 106.149 252.747C106.346 252.87 106.5 253.034 106.611 253.24C106.722 253.446 106.805 253.674 106.86 253.922C106.916 254.173 106.961 254.425 106.994 254.679C107.037 255.01 107.069 255.279 107.09 255.485C107.114 255.693 107.153 255.845 107.208 255.939C107.262 256.036 107.357 256.085 107.492 256.085H107.52C107.87 256.085 108.143 255.989 108.337 255.797C108.531 255.608 108.628 255.32 108.628 254.934C108.628 254.534 108.54 254.221 108.365 253.993C108.19 253.766 108.003 253.606 107.804 253.514L108.088 252.718C108.42 252.86 108.678 253.05 108.862 253.287C109.049 253.526 109.18 253.786 109.253 254.068C109.329 254.352 109.367 254.631 109.367 254.906C109.367 255.081 109.345 255.282 109.303 255.51C109.262 255.739 109.178 255.961 109.051 256.174C108.923 256.389 108.73 256.568 108.472 256.71C108.214 256.852 107.868 256.923 107.435 256.923H103.841V256.085H104.58V256.042C104.461 255.985 104.335 255.891 104.2 255.758C104.065 255.626 103.95 255.449 103.855 255.229C103.761 255.009 103.713 254.74 103.713 254.423ZM104.466 254.551C104.466 254.882 104.531 255.162 104.661 255.389C104.792 255.618 104.96 255.791 105.166 255.907C105.372 256.026 105.588 256.085 105.815 256.085H106.583C106.54 256.049 106.501 255.971 106.465 255.85C106.432 255.732 106.403 255.595 106.377 255.439C106.353 255.285 106.332 255.134 106.313 254.988C106.296 254.843 106.282 254.726 106.27 254.636C106.242 254.418 106.195 254.215 106.132 254.025C106.07 253.838 105.976 253.687 105.851 253.571C105.728 253.457 105.56 253.4 105.347 253.4C105.056 253.4 104.835 253.508 104.686 253.723C104.539 253.941 104.466 254.217 104.466 254.551ZM108.074 262.316L107.861 261.563C107.986 261.516 108.108 261.446 108.227 261.354C108.347 261.264 108.447 261.141 108.525 260.985C108.603 260.828 108.642 260.628 108.642 260.384C108.642 260.051 108.565 259.772 108.411 259.55C108.26 259.33 108.067 259.22 107.833 259.22C107.624 259.22 107.46 259.295 107.339 259.447C107.218 259.598 107.118 259.835 107.037 260.157L106.838 260.967C106.72 261.454 106.539 261.818 106.295 262.057C106.053 262.296 105.742 262.416 105.361 262.416C105.048 262.416 104.769 262.326 104.523 262.146C104.277 261.968 104.083 261.72 103.94 261.4C103.798 261.08 103.727 260.709 103.727 260.285C103.727 259.729 103.848 259.268 104.09 258.904C104.331 258.539 104.684 258.308 105.148 258.211L105.347 259.007C105.053 259.082 104.833 259.226 104.686 259.436C104.539 259.649 104.466 259.927 104.466 260.271C104.466 260.661 104.549 260.972 104.715 261.201C104.883 261.433 105.084 261.549 105.318 261.549C105.508 261.549 105.666 261.483 105.794 261.35C105.924 261.218 106.021 261.014 106.085 260.74L106.298 259.83C106.417 259.331 106.6 258.964 106.849 258.73C107.1 258.498 107.414 258.382 107.79 258.382C108.098 258.382 108.37 258.468 108.607 258.641C108.843 258.816 109.029 259.054 109.164 259.355C109.299 259.658 109.367 260.001 109.367 260.384C109.367 260.924 109.248 261.348 109.012 261.656C108.775 261.966 108.462 262.186 108.074 262.316ZM109.296 266.049H108.585V263.223H109.296V266.049ZM110.602 264.047V264.885H105.404C105.167 264.885 104.989 264.919 104.871 264.988C104.755 265.059 104.677 265.149 104.637 265.257C104.599 265.369 104.58 265.486 104.58 265.609C104.58 265.701 104.584 265.777 104.594 265.836C104.606 265.895 104.615 265.943 104.622 265.978L103.869 266.149C103.848 266.092 103.827 266.013 103.806 265.911C103.782 265.809 103.77 265.68 103.77 265.524C103.77 265.287 103.821 265.055 103.923 264.828C104.025 264.603 104.18 264.416 104.388 264.267C104.596 264.12 104.859 264.047 105.176 264.047H110.602ZM103.727 269.538C103.727 269.013 103.843 268.559 104.075 268.178C104.31 267.799 104.637 267.507 105.056 267.301C105.477 267.098 105.967 266.996 106.526 266.996C107.084 266.996 107.577 267.098 108.003 267.301C108.432 267.507 108.765 267.794 109.004 268.161C109.246 268.53 109.367 268.961 109.367 269.453C109.367 269.737 109.319 270.018 109.225 270.295C109.13 270.572 108.976 270.824 108.763 271.051C108.552 271.278 108.273 271.46 107.925 271.594C107.577 271.729 107.148 271.797 106.639 271.797H106.284V267.592H107.009V270.945C107.316 270.945 107.591 270.883 107.833 270.76C108.074 270.639 108.265 270.466 108.404 270.241C108.544 270.019 108.614 269.756 108.614 269.453C108.614 269.119 108.531 268.83 108.365 268.587C108.202 268.345 107.989 268.159 107.726 268.029C107.463 267.899 107.182 267.834 106.881 267.834H106.398C105.986 267.834 105.637 267.905 105.35 268.047C105.066 268.191 104.85 268.391 104.7 268.647C104.554 268.903 104.48 269.2 104.48 269.538C104.48 269.759 104.511 269.957 104.573 270.135C104.637 270.315 104.731 270.47 104.857 270.6C104.985 270.73 105.143 270.831 105.333 270.902L105.105 271.712C104.831 271.626 104.589 271.483 104.381 271.282C104.175 271.081 104.014 270.832 103.898 270.536C103.784 270.24 103.727 269.908 103.727 269.538ZM103.841 273.072H109.296V273.881H108.472V273.938C108.742 274.038 108.961 274.218 109.129 274.478C109.297 274.738 109.381 275.032 109.381 275.359C109.381 275.42 109.38 275.497 109.377 275.589C109.375 275.682 109.371 275.752 109.367 275.799H108.514C108.521 275.771 108.532 275.705 108.546 275.604C108.563 275.504 108.571 275.399 108.571 275.288C108.571 275.022 108.516 274.786 108.404 274.577C108.295 274.371 108.144 274.208 107.95 274.087C107.758 273.969 107.539 273.91 107.293 273.91H103.841V273.072ZM103.727 278.842C103.727 278.331 103.848 277.891 104.09 277.521C104.331 277.152 104.664 276.868 105.088 276.669C105.511 276.47 105.995 276.371 106.54 276.371C107.094 276.371 107.583 276.473 108.007 276.676C108.433 276.882 108.765 277.169 109.004 277.536C109.246 277.905 109.367 278.336 109.367 278.828C109.367 279.212 109.296 279.557 109.154 279.865C109.012 280.173 108.813 280.425 108.557 280.621C108.301 280.818 108.003 280.94 107.662 280.987V280.149C107.911 280.085 108.131 279.943 108.323 279.723C108.517 279.505 108.614 279.212 108.614 278.842C108.614 278.516 108.529 278.229 108.358 277.983C108.19 277.739 107.952 277.549 107.644 277.411C107.339 277.276 106.98 277.209 106.568 277.209C106.147 277.209 105.78 277.275 105.467 277.408C105.155 277.543 104.912 277.732 104.74 277.976C104.567 278.222 104.48 278.511 104.48 278.842C104.48 279.06 104.518 279.258 104.594 279.435C104.67 279.613 104.779 279.763 104.921 279.886C105.063 280.009 105.233 280.097 105.432 280.149V280.987C105.11 280.94 104.82 280.823 104.562 280.636C104.306 280.451 104.103 280.206 103.951 279.901C103.802 279.598 103.727 279.245 103.727 278.842ZM103.713 283.817C103.713 283.472 103.778 283.158 103.909 282.876C104.041 282.595 104.232 282.371 104.48 282.205C104.731 282.04 105.034 281.957 105.389 281.957C105.702 281.957 105.955 282.018 106.149 282.141C106.346 282.264 106.5 282.429 106.611 282.635C106.722 282.841 106.805 283.068 106.86 283.317C106.916 283.568 106.961 283.82 106.994 284.073C107.037 284.405 107.069 284.673 107.09 284.879C107.114 285.088 107.153 285.239 107.208 285.334C107.262 285.431 107.357 285.479 107.492 285.479H107.52C107.87 285.479 108.143 285.384 108.337 285.192C108.531 285.002 108.628 284.715 108.628 284.329C108.628 283.929 108.54 283.615 108.365 283.388C108.19 283.161 108.003 283.001 107.804 282.908L108.088 282.113C108.42 282.255 108.678 282.444 108.862 282.681C109.049 282.92 109.18 283.181 109.253 283.462C109.329 283.746 109.367 284.026 109.367 284.3C109.367 284.476 109.345 284.677 109.303 284.904C109.262 285.134 109.178 285.355 109.051 285.568C108.923 285.784 108.73 285.962 108.472 286.104C108.214 286.246 107.868 286.317 107.435 286.317H103.841V285.479H104.58V285.437C104.461 285.38 104.335 285.285 104.2 285.153C104.065 285.02 103.95 284.844 103.855 284.624C103.761 284.403 103.713 284.135 103.713 283.817ZM104.466 283.945C104.466 284.277 104.531 284.556 104.661 284.783C104.792 285.013 104.96 285.186 105.166 285.302C105.372 285.42 105.588 285.479 105.815 285.479H106.583C106.54 285.444 106.501 285.366 106.465 285.245C106.432 285.127 106.403 284.989 106.377 284.833C106.353 284.679 106.332 284.529 106.313 284.382C106.296 284.238 106.282 284.121 106.27 284.031C106.242 283.813 106.195 283.609 106.132 283.42C106.07 283.233 105.976 283.081 105.851 282.965C105.728 282.852 105.56 282.795 105.347 282.795C105.056 282.795 104.835 282.902 104.686 283.118C104.539 283.336 104.466 283.612 104.466 283.945ZM103.841 287.847H109.296V288.657H108.472V288.714C108.742 288.813 108.961 288.993 109.129 289.253C109.297 289.514 109.381 289.807 109.381 290.134C109.381 290.196 109.38 290.273 109.377 290.365C109.375 290.457 109.371 290.527 109.367 290.574H108.514C108.521 290.546 108.532 290.481 108.546 290.379C108.563 290.28 108.571 290.174 108.571 290.063C108.571 289.798 108.516 289.561 108.404 289.353C108.295 289.147 108.144 288.983 107.95 288.863C107.758 288.744 107.539 288.685 107.293 288.685H103.841V287.847ZM103.727 293.461C103.727 293.007 103.842 292.606 104.072 292.258C104.304 291.91 104.631 291.637 105.052 291.441C105.476 291.244 105.976 291.146 106.554 291.146C107.127 291.146 107.624 291.244 108.046 291.441C108.467 291.637 108.793 291.911 109.022 292.261C109.252 292.612 109.367 293.016 109.367 293.476C109.367 293.831 109.307 294.111 109.189 294.317C109.073 294.526 108.94 294.684 108.791 294.793C108.645 294.904 108.524 294.991 108.429 295.052V295.123H111.114V295.961H103.841V295.152H104.679V295.052C104.58 294.991 104.454 294.903 104.303 294.79C104.154 294.676 104.02 294.514 103.901 294.303C103.785 294.092 103.727 293.812 103.727 293.461ZM104.48 293.575C104.48 293.911 104.568 294.195 104.743 294.427C104.921 294.659 105.166 294.836 105.478 294.956C105.793 295.077 106.156 295.138 106.568 295.138C106.976 295.138 107.332 295.078 107.637 294.96C107.945 294.842 108.184 294.666 108.355 294.434C108.527 294.202 108.614 293.916 108.614 293.575C108.614 293.22 108.523 292.924 108.34 292.687C108.16 292.453 107.915 292.277 107.605 292.158C107.298 292.042 106.952 291.984 106.568 291.984C106.18 291.984 105.827 292.043 105.51 292.162C105.195 292.282 104.944 292.46 104.757 292.694C104.573 292.931 104.48 293.225 104.48 293.575Z" fill="black"/>
<rect opacity="0.4" x="1.58188" y="113.495" width="174" height="289" rx="11" transform="rotate(-30.5884 1.58188 113.495)" fill="url(#paint2_linear_0_1)"/>
<defs>
<linearGradient id="paint0_linear_0_1" x1="112.272" y1="46.2812" x2="112.272" y2="335.281" gradientUnits="userSpaceOnUse">
<stop stop-color="#B18787" stop-opacity="0.51"/>
<stop offset="0.552083" stop-color="#A98484" stop-opacity="0.28"/>
<stop offset="1" stop-color="#A98484" stop-opacity="0"/>
</linearGradient>
<linearGradient id="paint1_linear_0_1" x1="261.996" y1="16.8884" x2="97.8508" y2="307.942" gradientUnits="userSpaceOnUse">
<stop stop-color="#B18787"/>
<stop offset="1" stop-color="#975252"/>
</linearGradient>
<linearGradient id="paint2_linear_0_1" x1="88.5819" y1="113.495" x2="88.5819" y2="402.495" gradientUnits="userSpaceOnUse">
<stop stop-color="#A98484" stop-opacity="0.29"/>
<stop offset="0.552083" stop-color="#A98484" stop-opacity="0.28"/>
<stop offset="1" stop-color="#A98484" stop-opacity="0"/>
</linearGradient>
<clipPath id="clip0_0_1">
<rect width="30" height="30" fill="white" transform="translate(142.659 261.866) rotate(74.6179)"/>
</clipPath>
</defs>
</svg>
